<svg width="176" height="241" xmlns="http://www.w3.org/2000/svg" xmlns:xlink="http://www.w3.org/1999/xlink" xml:space="preserve" overflow="hidden"><defs><clipPath id="clip0"><rect x="193" y="259" width="176" height="241"/></clipPath><clipPath id="clip1"><rect x="223" y="275" width="129" height="130"/></clipPath><clipPath id="clip2"><rect x="223" y="275" width="129" height="130"/></clipPath><clipPath id="clip3"><rect x="223" y="275" width="129" height="130"/></clipPath></defs><g clip-path="url(#clip0)" transform="translate(-193 -259)"><path d="M175.995 187.659 26.5818 187.672 26.5823 187.642C12.0139 187.807 0.237087 199.563 0.0472305 214.131L0 214.131 0.00170492 239.058 176 239.043Z" fill="#005F4B" transform="matrix(1 0 0 1.00066 193 259.893)"/><path d="M34.45 213.346C34.4524 217.277 31.2674 220.466 27.3363 220.468 23.4051 220.47 20.2163 217.285 20.2139 213.354 20.2115 209.423 23.3961 206.235 27.3271 206.232 31.2583 206.229 34.4473 209.414 34.45 213.345 34.45 213.345 34.45 213.346 34.45 213.346Z" fill="#FFFFFF" transform="matrix(1 0 0 1.00066 193 259.893)"/><path d="M54.675 213.35 152.823 213.35" stroke="#FFFFFF" stroke-width="3.45592" stroke-miterlimit="10" fill="none" transform="matrix(1 0 0 1.00066 193 259.893)"/><path d="M175.999 0 15.6254 0 15.6254 160.373 81.9284 160.373 95.8258 182.113 110.041 160.373 175.999 160.373 175.999 0Z" fill="#DF8C42" transform="matrix(1 0 0 1.00066 193 259.893)"/><path d="M50.3343 34.8062 141.292 34.8062 141.292 125.764 50.3343 125.764Z" fill="#FFFFFF" transform="matrix(0.00523143 -1.00064 0.999986 0.00523487 208.028 435.685)"/><path d="M124.667 76.0902 122.911 58.8659 108.875 68.994 124.667 76.0902Z" fill="#DF8C42" transform="matrix(1 0 0 1.00066 193 259.893)"/><path d="M67.2062 84.753 68.1278 102.042 82.638 92.6003 67.2062 84.753Z" fill="#DF8C42" transform="matrix(1 0 0 1.00066 193 259.893)"/><path d="M68.7655 76.7947C69.8373 68.084 75.1755 60.4782 83.0039 56.5094 95.3687 49.774 110.853 54.3294 117.6 66.6873" stroke="#DF8C42" stroke-width="3.45592" stroke-miterlimit="10" fill="none" transform="matrix(1 0 0 1.00066 193 259.893)"/><path d="M121.778 83.8757C120.74 92.5906 115.43 100.217 107.617 104.215 95.2775 110.998 79.7765 106.501 72.9817 94.1688" stroke="#DF8C42" stroke-width="3.45592" stroke-miterlimit="10" fill="none" transform="matrix(1 0 0 1.00066 193 259.893)"/><g clip-path="url(#clip1)"><g clip-path="url(#clip2)"><g clip-path="url(#clip3)"><path d="M0 0 129 0 129 129 1.80544e-06 129Z" fill="#005F4B" transform="matrix(1 0 0 1.00775 223 275)"/><path d="M108.241 54.6099 108.919 36.0789 92.5319 44.7528 108.241 54.6099Z" fill="#FFFFFF" transform="matrix(1 0 0 1.00775 223 275)"/><path d="M22.0442 75.0249 23.0317 93.5422 38.5728 83.4348 22.0442 75.0249Z" fill="#FFFFFF" transform="matrix(1 0 0 1.00775 223 275)"/><path d="M23.7407 57.2671 20.3498 56.8757C22.1214 42.2674 31.0712 29.5084 44.2038 22.8692 54.3769 17.5355 66.2218 16.3535 77.2484 19.5716 88.0393 22.6476 97.0818 30.0412 102.24 40.0058L99.2093 41.5702C94.4742 32.4366 86.1808 25.661 76.2864 22.8425 66.1007 19.8785 55.1633 20.9743 45.7681 25.9001 33.6482 32.021 25.3842 43.7888 23.7407 57.2671Z" fill="#FFFFFF" transform="matrix(1 0 0 1.00775 223 275)"/><path d="M64.618 107.895C49.0465 108.093 34.6633 99.5929 27.3271 85.8563L30.3534 84.274C40.8814 103.288 64.8083 110.201 83.8544 99.7308 95.9482 93.5672 104.166 81.7728 105.76 68.2928L109.151 68.666C107.434 83.2778 98.5353 96.0674 85.4321 102.758 79.01 106.123 71.8689 107.886 64.618 107.895Z" fill="#FFFFFF" transform="matrix(1 0 0 1.00775 223 275)"/><path d="M41.2317 84.9179C41.1281 86.3796 43.7454 87.0536 46.6737 87.4108 49.3227 87.5424 51.8867 88.3915 54.0906 89.8678 55.2151 90.3138 59.2731 90.925 60.5587 88.3852 61.6523 86.5475 61.3364 84.1989 59.7969 82.7153 57.243 79.6763 54.9098 76.4579 52.8155 73.0858 51.8102 71.2249 49.5607 70.0381 48.2806 72.521 46.995 75.0139 46.7879 74.4901 44.0254 75.1746 41.4184 75.8172 41.9366 76.5376 42.0197 79.3468 42.0974 82.1555 42.2218 82.4514 41.4548 83.519 41.2766 83.9627 41.2003 84.441 41.2318 84.9184" fill="#005F4B" transform="matrix(1 0 0 1.00775 223 275)"/><path d="M56.6227 90.7994C55.6975 90.8094 54.7778 90.6624 53.9018 90.3643 53.6911 90.2692 53.4899 90.1545 53.3006 90.0221 51.2828 88.7715 48.9805 88.0543 46.6095 87.9387 43.7848 87.5915 40.5663 86.928 40.7062 84.8806L40.7166 84.6476C40.6827 84.1493 40.7905 83.6514 41.0275 83.2118 41.5925 82.424 41.5873 82.227 41.5251 80.3093L41.494 79.3609C41.4784 78.9358 41.4576 78.5627 41.437 78.2259 41.3178 76.2044 41.3696 75.282 43.899 74.6599 44.4639 74.5202 44.92 74.4319 45.3087 74.3541 46.7497 74.0742 46.8999 74.0487 47.8069 72.2862 48.1814 71.305 49.1006 70.6379 50.1496 70.5864 51.5226 70.7157 52.7195 71.5758 53.2801 72.8359 54.8766 75.535 56.6969 78.0958 58.722 80.4909 59.3491 81.2681 59.8724 81.9266 60.2251 82.4086 61.8753 84.0555 62.2075 86.6081 61.0334 88.6227 60.0995 90.1309 58.388 90.9755 56.6227 90.7994M41.7583 84.9534C41.7273 85.4458 42.3285 86.3473 46.7392 86.8916 49.269 87.0272 51.7237 87.7995 53.8758 89.1361 54.0046 89.2293 54.1416 89.3108 54.2854 89.3795 55.2028 89.7372 58.9814 90.3434 60.0904 88.1458 61.0975 86.4866 60.7963 84.3472 59.37 83.0307 59.0278 82.5537 58.5095 81.9107 57.8978 81.1544 55.8331 78.7083 53.9764 76.0938 52.3472 73.3383 51.9554 72.4414 51.1362 71.8038 50.1701 71.6436L50.1601 71.6436C49.6053 71.6491 49.1339 72.0272 48.7502 72.7631 47.6517 74.8984 47.1693 75.0695 45.511 75.3908 45.1377 75.4636 44.692 75.5514 44.153 75.6861 42.3701 76.1266 42.3804 76.3187 42.4893 78.1636 42.51 78.5108 42.5308 78.8944 42.5463 79.3299L42.5774 80.2733C42.6448 82.2684 42.6603 82.7453 41.8829 83.8284 41.7963 84.1033 41.7577 84.3909 41.7689 84.6785Z" fill="#FFFFFF" transform="matrix(1 0 0 1.00775 223 275)"/><path d="M56.6232 91.4492C55.6165 91.4602 54.6158 91.2977 53.6647 90.9682 53.4121 90.854 53.1704 90.7184 52.9411 90.5632 51.0052 89.3732 48.8003 88.6905 46.5308 88.579 44.5341 88.336 39.8599 87.764 40.0623 84.8337L40.0699 84.6162C40.035 83.9927 40.1847 83.3729 40.5001 82.8345 40.9329 82.237 40.9405 82.222 40.8772 80.3293L40.8468 79.3827C40.8317 78.9827 40.8114 78.6232 40.7912 78.2992 40.6646 76.123 40.738 74.7714 43.7446 74.0328 44.2634 73.9008 44.6987 73.8148 45.0708 73.7443 46.4703 73.4658 46.4703 73.4658 47.2293 71.9876 47.714 70.7912 48.8544 69.9889 50.1446 69.938L50.1701 69.938C51.7743 70.0704 53.1818 71.0597 53.8499 72.5242 55.4058 75.1559 57.1793 77.6534 59.1516 79.9898 59.8602 80.8759 60.3917 81.5389 60.7485 82.0245 62.5356 83.8753 62.8874 86.6841 61.6113 88.9181 60.5815 90.6592 58.636 91.6458 56.6232 91.4492ZM42.4056 84.9757C42.4486 85.0562 42.9446 85.7703 46.8189 86.2508 49.4479 86.3905 51.9982 87.1969 54.229 88.5945L54.5202 88.7765C55.196 89.035 58.6173 89.6371 59.5107 87.8504 60.5255 85.8513 60.0117 85.0007 58.8476 83.4166 58.5441 82.9915 58.1113 82.45 57.6002 81.8174L57.3927 81.5589C55.303 79.0837 53.4244 76.4374 51.777 73.6482 51.4889 72.9647 50.8918 72.4605 50.1701 72.2916 49.8738 72.2966 49.5903 72.5547 49.3245 73.0612 48.1655 75.3184 47.5506 75.6574 45.6325 76.027L45.478 76.0574C45.149 76.123 44.7618 76.199 44.3113 76.3155 43.0485 76.6295 43.0485 76.6295 43.1372 78.1226 43.1575 78.4767 43.1777 78.8667 43.1954 79.3067L43.2258 80.2533C43.5073 81.6145 43.2203 83.0316 42.4311 84.1761L42.4311 84.1711C42.4362 84.3449 42.4311 84.5192 42.4159 84.6926Z" fill="#FFFFFF" transform="matrix(1 0 0 1.00775 223 275)"/><path d="M64.5976 49.6249C63.0339 49.4638 61.5494 48.8554 60.3216 47.8728 60.1874 47.7795 60.0595 47.6771 59.9384 47.567 59.7327 47.3522 59.6272 47.0605 59.6481 46.7638 59.8001 46.0803 60.2128 45.4835 60.7985 45.1002L61.0165 44.9188C62.6676 43.076 65.3216 42.5141 67.5779 43.5297 69.2571 44.2191 70.221 44.5559 70.8586 44.7788 71.3005 44.9044 71.7237 45.0874 72.1178 45.323 72.425 45.5342 72.6284 45.8655 72.6775 46.235 72.7267 46.8748 72.496 47.5042 72.0454 47.9611 71.9508 48.074 71.7829 48.0895 71.6695 47.9948 71.5567 47.9001 71.5412 47.7322 71.6359 47.6189 71.9931 47.2794 72.1824 46.7998 72.1542 46.3078 72.1283 46.088 72.0095 45.89 71.8275 45.7635 71.4684 45.5524 71.0834 45.3885 70.682 45.2764 70.0394 45.0534 69.0706 44.7166 67.3754 44.0221 65.3034 43.0823 62.8601 43.6083 61.3583 45.3178L61.1408 45.5044C60.3735 46.1417 60.1919 46.5617 60.171 46.8002 60.1642 46.9522 60.2206 47.1006 60.3266 47.2098 60.424 47.2985 60.5278 47.38 60.6374 47.4532 61.8257 48.3971 63.2669 48.9669 64.7787 49.0911 66.7378 48.9769 67.5674 48.8162 70.6461 46.4166 70.7607 46.3287 70.925 46.3492 71.0138 46.4634 71.1016 46.5799 71.0811 46.7451 70.9674 46.8366 69.3545 48.5263 67.1492 49.5243 64.8151 49.6199L64.5976 49.6249" fill="#FFFFFF" transform="matrix(1 0 0 1.00775 223 275)"/><path d="M62.0018 44.4922C61.0479 43.8671 60.6825 42.6464 61.1362 41.6002 61.397 41.0902 62.0223 40.8885 62.5319 41.1496 62.7554 41.2639 62.9297 41.4553 63.0225 41.6883 63.256 42.3844 63.256 43.1378 63.0225 43.834L64.0333 43.4349C64.2057 42.2592 63.9618 41.0602 63.3438 40.0453 62.81 39.2023 61.6941 38.9517 60.8509 39.4855 60.6252 39.6285 60.434 39.8196 60.2911 40.0453 59.5516 41.7558 59.9525 43.7457 61.2969 45.0364Z" fill="#FFFFFF" transform="matrix(1 0 0 1.00775 223 275)"/><path d="M69.5557 44.4922C70.0276 44.0054 70.3744 43.4114 70.5664 42.7611 70.8877 40.9886 69.5557 40.8486 69.5557 40.8486 67.2179 40.688 67.7936 43.9065 67.7936 43.9065L66.6741 43.5023C66.6741 43.5023 66.3942 38.3557 70.0426 38.677 71.5963 38.8929 72.6807 40.3274 72.465 41.8811 72.4436 42.0335 72.4104 42.1839 72.3649 42.3309 72.1801 43.3873 71.6295 44.345 70.8099 45.0364Z" fill="#FFFFFF" transform="matrix(1 0 0 1.00775 223 275)"/><path d="M78.499 68.9946 78.271 69.228C78.3342 65.6456 77.3745 62.1196 75.5036 59.0642 73.5295 55.5614 72.3262 51.6778 71.974 47.6726L71.974 47.4701C72.0673 46.8016 71.5385 47.942 71.2067 48.1545 69.8023 49.0301 68.2423 50.7198 67.0345 51.0411 64.9475 51.6869 62.6858 50.865 61.4994 49.0301 61.4994 49.0301 61.0279 48.0508 60.9706 48.2683L60.9706 48.1545C60.9706 48.1545 60.4522 50.7976 60.3334 51.4402 59.6617 54.2931 58.6123 57.0437 57.2129 59.619 55.6293 62.6935 54.7173 66.0698 54.5389 69.5234L54.5389 70.1505C55.1451 72.1874 55.1605 73.1568 59.2085 75.8827 59.2085 75.8827 61.0953 77.111 60.9346 78.0439 60.9346 78.0439 60.8927 79.0546 58.54 80.3816L58.8353 80.9673C64.2963 83.894 71.0447 82.7604 75.2497 78.21L75.3375 77.987C75.2961 77.0227 75.2028 76.209 75.1819 75.8413 75.1405 75.079 74.7313 71.472 77.0222 71.3892L77.0686 71.1662C77.0764 71.1152 77.0887 71.0647 77.105 71.016 77.5406 69.4091 81.9098 69.6786 83.3037 70.3575L83.8325 70.6324C83.0002 69.492 81.6313 68.8708 80.2251 68.9946L80.1163 69" fill="#FFFFFF" transform="matrix(1 0 0 1.00775 223 275)"/><path d="M84.583 71.5353C85.9123 71.0001 87.424 71.6441 87.9592 72.9738 88.0666 73.2405 88.129 73.5235 88.1435 73.8107 88.2559 75.3475 88.9963 76.7706 90.1905 77.7444 92.6784 79.3509 92.6006 80.1755 92.6006 80.1755 92.7976 80.7352 92.9219 81.5644 88.3042 84.2489 82.2088 87.8045 83.5722 88.3019 81.2035 89.5461 79.7969 90.2815 78.1376 90.3593 76.6686 89.7586 76.6686 89.7586 74.1343 89.5925 74.3363 85.2132 74.426 83.8785 74.6694 82.5583 75.0617 81.2791 75.3102 80.1941 75.403 79.0787 75.3366 77.9674 75.3366 77.9674 74.5434 72.1574 76.3887 71.5043 79.1106 71.1753 81.8634 71.1858 84.583 71.5353" fill="#005F4B" transform="matrix(1 0 0 1.00775 223 275)"/><path d="M78.7233 90.6861C77.9706 90.6902 77.2243 90.5473 76.5262 90.266 75.9714 90.1887 73.6082 89.5666 73.8103 85.1869 73.899 83.8152 74.1479 82.4586 74.5516 81.1444 74.79 80.1104 74.8756 79.0469 74.8055 77.9879 74.6704 76.9981 74.0747 71.7633 76.2099 71.0069 78.9622 70.6265 81.7542 70.6228 84.5074 70.9965 85.3561 70.6606 86.3132 70.7412 87.0941 71.214 87.9861 71.7783 88.5677 72.7235 88.6696 73.7743 88.7775 75.145 89.4287 76.4161 90.4785 77.3039 92.6757 78.7238 93.0803 79.6467 93.1271 80.0767 93.4584 81.1598 92.7849 82.2484 88.5713 84.7049 86.629 85.682 84.8633 86.9767 83.3469 88.5349 82.8181 89.1474 82.1733 89.6494 81.4497 90.0121 80.6096 90.4553 79.6735 90.6865 78.7238 90.6856M79.1952 71.7528C78.3106 71.7141 77.4245 71.7979 76.5626 72.0013 75.5883 72.3485 75.5623 75.728 75.8577 77.8996 75.9391 79.0787 75.8431 80.2629 75.5723 81.4133 75.1873 82.6561 74.9507 83.9399 74.8679 85.2383 74.6863 89.0582 76.6818 89.2239 76.7023 89.2293 76.7692 89.2344 76.8343 89.2521 76.8943 89.2812 78.2118 89.8173 79.6995 89.7431 80.9573 89.0792 81.5758 88.7724 82.126 88.3442 82.5747 87.82 84.1579 86.1794 86.0065 84.8182 88.0425 83.7925 92.4222 81.2427 92.1783 80.5741 92.1009 80.3512 92.0736 80.2802 92.0645 80.2037 92.075 80.1282 92.054 80.1282 91.8465 79.4392 89.9033 78.19 88.5731 77.1255 87.7449 75.5559 87.6174 73.8571 87.546 73.1426 87.1505 72.501 86.5448 72.1155 86.011 71.7929 85.3511 71.7597 84.7877 72.0277 84.7036 72.06 84.613 72.0727 84.5233 72.0641 83.4298 71.9449 81.113 71.7528 79.1952 71.7528" fill="#FFFFFF" transform="matrix(1 0 0 1.00775 223 275)"/><path d="M78.7238 91.3327C77.911 91.3336 77.1055 91.1844 76.3473 90.8922 75.5983 90.7607 72.9433 89.9507 73.1613 85.1577 73.2537 83.7392 73.5104 82.3367 73.9254 80.9769 74.1466 80.0048 74.2248 79.0059 74.1584 78.0111 73.9454 76.5025 73.4348 71.3046 75.9928 70.3935 78.7861 69.9466 81.6313 69.9275 84.43 70.338 85.4294 69.998 86.528 70.1163 87.4318 70.662 88.5035 71.3319 89.2002 72.465 89.3144 73.7242 89.4123 74.8911 89.9538 75.976 90.8276 76.756 92.6802 77.9551 93.6673 79.0487 93.7711 80.0103 94.2393 81.5034 93.017 82.86 88.8971 85.2692 87.0135 86.2131 85.2997 87.4632 83.8257 88.969 83.2473 89.6389 82.5419 90.1878 81.7505 90.5837 80.8181 91.0779 79.7786 91.335 78.7238 91.3327ZM76.7901 88.5895C76.9239 88.6036 77.0541 88.6414 77.1747 88.7005 78.3096 89.1365 79.577 89.0664 80.657 88.5085 81.193 88.2427 81.6704 87.8727 82.0613 87.4199 83.6928 85.7102 85.6051 84.2931 87.7153 83.2291 91.1671 81.2249 91.4656 80.5318 91.4884 80.4608 91.4556 80.4203 91.436 80.3707 91.4329 80.3188 90.9145 79.6754 90.2769 79.1374 89.5552 78.7347 88.048 77.5665 87.1087 75.8131 86.9712 73.9113 86.9157 73.402 86.6345 72.9447 86.2044 72.6662 85.8494 72.4523 85.4089 72.4368 85.0403 72.6257 84.8524 72.6967 84.6508 72.7244 84.4505 72.7067 83.504 72.6002 81.1835 72.4031 79.1943 72.4031 78.382 72.3544 77.5665 72.4263 76.7751 72.6157 76.2272 74.2935 76.1321 76.087 76.4993 77.8136 76.5903 79.0769 76.4884 80.3466 76.1981 81.5794 75.8263 82.7781 75.5969 84.0164 75.515 85.2692 75.373 88.2505 76.6281 88.564 76.7901 88.5895Z" fill="#FFFFFF" transform="matrix(1 0 0 1.00775 223 275)"/><path d="M84.583 72.3708C84.557 72.4846 81.675 77.0045 78.9955 76.0766 77.1142 75.4285 76.8447 72.9306 77.1815 71.5676L77.2438 71.0752C77.2438 71.0752 77.2489 69.4738 81.7478 69.9193 81.7478 69.9193 84.2612 70.2715 84.583 71.5362 84.6608 71.8088 84.6608 72.0978 84.583 72.3708" fill="#005F4B" transform="matrix(1 0 0 1.00775 223 275)"/><path d="M79.7463 76.4675C79.4605 76.4679 79.1766 76.4206 78.9067 76.3278 77.1674 75.409 76.3341 73.3779 76.9267 71.5021L76.9835 71.0411C77.0199 70.7548 77.1674 70.4945 77.3931 70.3152 78.7151 69.5434 80.2824 69.3081 81.7728 69.6572 81.8921 69.6726 84.4783 70.0513 84.841 71.4766 84.9293 71.7901 84.9293 72.1219 84.841 72.435 83.995 73.8735 82.8213 75.0918 81.4151 75.9905 80.9077 76.2868 80.3338 76.4506 79.7463 76.4675M80.3061 70.1082C79.4214 70.0089 78.5285 70.2101 77.7717 70.6784 77.6398 70.7789 77.5465 70.9214 77.5073 71.0825L77.445 71.6008C77.1028 72.9793 77.3931 75.2442 79.0828 75.8299 81.3942 76.6281 84.0532 72.8136 84.3331 72.2848 84.3941 72.0609 84.3923 71.8238 84.3277 71.6008 84.0997 70.7043 82.3585 70.2738 81.7105 70.1805 81.1767 70.1286 80.7102 70.1077 80.3061 70.1077" fill="#FFFFFF" transform="matrix(1 0 0 1.00775 223 275)"/><path d="M79.7459 77.0345C79.3982 77.0368 79.0523 76.9794 78.7238 76.8657 76.7041 75.8499 75.7116 73.5249 76.3751 71.3637L76.4197 70.9683 76.4197 70.9683C76.4684 70.5464 76.6809 70.16 77.0108 69.8929 78.4462 68.9964 80.18 68.7083 81.8283 69.0929 81.8661 69.0974 84.9147 69.4574 85.3925 71.3328 85.5022 71.7374 85.5031 72.1633 85.3948 72.5683 84.5138 74.1689 83.2386 75.5182 81.6905 76.488 81.0984 76.8306 80.4299 77.019 79.7459 77.0345ZM78.053 71.3014 78.0084 71.6659C77.6994 72.937 77.9774 74.8437 79.2681 75.2924 80.9928 75.9191 83.3169 72.9151 83.7948 72.0791 83.8189 71.9658 83.813 71.8475 83.777 71.7374 83.6723 71.3328 82.5569 70.8795 81.6304 70.7462 81.1416 70.697 80.6947 70.6752 80.3061 70.6752 79.5547 70.5828 78.7934 70.7375 78.1372 71.1148Z" fill="#FFFFFF" transform="matrix(1 0 0 1.00775 223 275)"/><path d="M74.3259 87.5747C74.2485 87.5751 74.172 87.5574 74.1029 87.5228 70.3093 85.6515 65.9273 85.3661 61.923 86.73 61.6564 86.8434 61.3478 86.7187 61.2345 86.452 61.2345 86.4511 61.2341 86.4506 61.2341 86.4502 61.1207 86.1826 61.2431 85.8736 61.5085 85.7557 65.7871 84.2544 70.4913 84.5497 74.5488 86.5744 74.811 86.6977 74.9238 87.0104 74.801 87.2729 74.7145 87.4573 74.5293 87.5747 74.3259 87.5747" fill="#FFFFFF" transform="matrix(1 0 0 1.00775 223 275)"/><path d="M74.3254 88.225C74.1502 88.2236 73.9777 88.1822 73.8216 88.1035 70.1919 86.3255 66.0083 86.0474 62.1752 87.3289 61.8871 87.4472 61.564 87.4491 61.2741 87.3339 60.672 87.0841 60.3867 86.3933 60.637 85.7912 60.7517 85.5141 60.9678 85.2915 61.2413 85.1677 65.692 83.5827 70.596 83.8789 74.8237 85.9878 75.105 86.1125 75.3234 86.3464 75.4285 86.6358 75.5396 86.9321 75.525 87.2611 75.388 87.5469 75.2005 87.9642 74.7828 88.2309 74.3254 88.225Z" fill="#FFFFFF" transform="matrix(1 0 0 1.00775 223 275)"/><path d="M84.9297 71.9453C84.6398 71.9462 84.4041 71.7123 84.4027 71.4229 84.4018 71.1913 84.5529 70.9869 84.7741 70.9191 84.7686 70.9191 85.7175 70.4731 85.8108 67.8355 85.2378 64.0169 83.8198 60.3744 81.659 57.1743 81.3947 56.7283 80.9337 56.0752 80.3944 55.3239 78.0607 52.5588 76.3733 49.3077 75.4554 45.8081 75.419 44.9892 75.398 43.9371 75.3721 42.8227 75.378 40.8111 75.2742 38.8006 75.0613 36.8003 74.4496 33.3541 71.4343 30.8565 67.9347 30.897 64.2271 30.4521 60.8113 32.963 60.1291 36.6344 59.9698 39.2386 59.9544 41.8495 60.0827 44.4554 60.1136 45.6165 60.1396 46.6323 60.1396 47.3058 60.0031 49.062 59.4465 50.7594 58.5172 52.2557 58.2842 52.7013 58.0717 53.1004 57.9315 53.4476 56.5672 55.9906 55.0745 58.4626 53.459 60.8541 52.8837 61.7556 52.3135 62.6471 51.7902 63.4817 50.48 65.5969 49.938 68.099 50.2561 70.5669 50.3084 70.8531 50.1187 71.128 49.832 71.1808 49.548 71.2327 49.2749 71.047 49.2194 70.7635 48.8344 68.0334 49.4292 65.2552 50.8987 62.922 51.422 62.0873 51.9922 61.1908 52.5675 60.2888 54.5216 57.2261 56.5376 54.0592 56.9572 53.0485 57.1074 52.6753 57.3304 52.2453 57.5843 51.7633 58.4253 50.4149 58.9382 48.8886 59.0824 47.3063 59.0824 46.6373 59.0565 45.632 59.0255 44.4866 58.8899 41.815 58.9109 39.1378 59.0879 36.4686 59.8456 32.2631 63.7352 29.3663 67.9816 29.8449 71.9813 29.8224 75.4135 32.6894 76.1034 36.6293 76.3264 38.6775 76.4352 40.7365 76.4297 42.7968 76.4506 43.9008 76.4766 44.9477 76.5125 45.7562 77.4477 49.0424 79.0651 52.0942 81.2599 54.7123 81.8302 55.5209 82.2812 56.1585 82.5406 56.5886 84.8228 59.973 86.3032 63.8339 86.8684 67.8769 86.7437 71.3027 85.2565 71.8675 85.0904 71.9194 85.0389 71.938 84.9843 71.9467 84.9297 71.9453" fill="#FFFFFF" transform="matrix(1 0 0 1.00775 223 275)"/><path d="M84.9288 72.5952C84.2812 72.5979 83.7547 72.075 83.752 71.4274 83.7502 70.9114 84.086 70.4545 84.5798 70.3025 85.0066 69.5466 85.2087 68.6842 85.1618 67.8173 84.679 64.097 83.2846 60.5537 81.1025 57.5024 80.844 57.0669 80.3939 56.4343 79.8674 55.7057 77.455 52.8432 75.7252 49.4702 74.8087 45.8409 74.7755 45.1322 74.7555 44.2465 74.735 43.3L74.725 42.8394C74.7304 40.8582 74.6299 38.878 74.4242 36.9074 73.8667 33.76 71.1034 31.4851 67.9074 31.5424 64.5307 31.1172 61.4052 33.3914 60.7708 36.7354 60.6183 39.2668 60.6042 41.8046 60.728 44.3376L60.7353 44.6818C60.763 45.7499 60.7885 46.676 60.7885 47.3035 60.6597 49.153 60.0841 50.9437 59.1106 52.522 58.8676 52.9775 58.6651 53.362 58.5313 53.6911 57.1997 56.2054 55.7326 58.6451 54.1352 60.9997L54.0064 61.2022C53.4294 62.1033 52.8596 62.9989 52.3363 63.8239 51.1198 65.8076 50.6115 68.1449 50.8937 70.4545 51.0115 71.0907 50.5915 71.7023 49.9553 71.8202 49.953 71.8206 49.9512 71.8206 49.9494 71.8211 49.3177 71.9308 48.7134 71.518 48.5855 70.89 48.1641 67.9975 48.7907 65.0499 50.3517 62.5788 50.8759 61.7437 51.4452 60.8427 52.0218 59.9421 53.8672 57.0468 55.9596 53.7621 56.3597 52.8005 56.5139 52.4155 56.7469 51.9654 57.01 51.4589 57.7977 50.2019 58.2851 48.7798 58.4348 47.3035 58.4348 46.6405 58.4094 45.6434 58.3766 44.505 58.2405 41.7947 58.2642 39.0787 58.4476 36.3713 59.2017 32.0506 63.0585 28.9699 67.4391 29.189 67.6266 29.189 67.8164 29.189 68.0089 29.1991 72.318 29.1799 76.0115 32.2762 76.7446 36.5229 76.9722 38.6021 77.0837 40.6923 77.0787 42.7839 77.0987 43.8822 77.1242 44.9249 77.1597 45.7244 78.1026 48.8599 79.6653 51.7738 81.7555 54.2936L81.9071 54.5061C82.4336 55.2552 82.8486 55.8427 83.0967 56.2523 85.4472 59.7423 86.9594 63.7279 87.5155 67.8987 87.379 71.7 85.6301 72.4286 85.2811 72.5351 85.1696 72.5815 85.0494 72.602 84.9288 72.5952ZM84.9288 71.2996 84.9288 71.9476 84.9316 71.2996Z" fill="#FFFFFF" transform="matrix(1 0 0 1.00775 223 275)"/></g></g></g></g></svg>