<svg width="37" height="37" xmlns="http://www.w3.org/2000/svg" xmlns:xlink="http://www.w3.org/1999/xlink" xml:space="preserve" overflow="hidden"><defs><clipPath id="clip0"><rect x="214" y="227" width="37" height="37"/></clipPath></defs><g clip-path="url(#clip0)" transform="translate(-214 -227)"><path d="M214 227 251 227 251 264 214 264Z" fill="#005F4B"/><path d="M245.046 242.663 245.24 237.348 240.54 239.836 245.046 242.663Z" fill="#FFFFFF"/><path d="M220.323 248.519 220.606 253.83 225.064 250.931 220.323 248.519Z" fill="#FFFFFF"/><path d="M220.809 243.425 219.837 243.313C220.345 239.123 222.912 235.464 226.679 233.559 229.596 232.03 232.994 231.691 236.157 232.614 239.252 233.496 241.845 235.616 243.325 238.475L242.455 238.923C241.097 236.304 238.719 234.36 235.881 233.552 232.959 232.702 229.822 233.016 227.127 234.429 223.651 236.184 221.281 239.56 220.809 243.425Z" fill="#FFFFFF"/><path d="M232.534 257.947C228.068 258.004 223.942 255.565 221.838 251.625L222.706 251.172C225.726 256.625 232.588 258.608 238.051 255.605 241.52 253.837 243.877 250.454 244.334 246.588L245.307 246.695C244.814 250.886 242.262 254.554 238.504 256.473 236.662 257.439 234.614 257.944 232.534 257.947Z" fill="#FFFFFF"/><path d="M225.826 251.356C225.796 251.776 226.547 251.969 227.387 252.071 228.147 252.109 228.882 252.353 229.514 252.776 229.837 252.904 231.001 253.079 231.37 252.351 231.683 251.824 231.593 251.15 231.151 250.725 230.419 249.853 229.749 248.93 229.149 247.963 228.86 247.429 228.215 247.088 227.848 247.801 227.479 248.516 227.42 248.365 226.627 248.562 225.88 248.746 226.028 248.953 226.052 249.758 226.074 250.564 226.11 250.649 225.89 250.955 225.839 251.082 225.817 251.22 225.826 251.356" fill="#005F4B"/><path d="M230.241 253.043C229.975 253.046 229.711 253.004 229.46 252.918 229.4 252.891 229.342 252.858 229.288 252.82 228.709 252.462 228.049 252.256 227.369 252.223 226.558 252.123 225.635 251.933 225.675 251.346L225.678 251.279C225.669 251.136 225.7 250.993 225.768 250.867 225.93 250.641 225.928 250.585 225.91 250.034L225.901 249.762C225.897 249.641 225.891 249.533 225.885 249.437 225.851 248.857 225.866 248.593 226.591 248.414 226.753 248.374 226.884 248.349 226.996 248.326 227.409 248.246 227.452 248.239 227.712 247.733 227.819 247.452 228.083 247.26 228.384 247.246 228.778 247.283 229.121 247.53 229.282 247.891 229.74 248.665 230.262 249.4 230.843 250.087 231.023 250.309 231.173 250.498 231.274 250.637 231.747 251.109 231.842 251.841 231.506 252.419 231.238 252.852 230.747 253.094 230.241 253.043M225.977 251.367C225.968 251.508 226.141 251.766 227.406 251.922 228.131 251.961 228.836 252.183 229.453 252.566 229.49 252.593 229.529 252.616 229.57 252.636 229.833 252.739 230.917 252.912 231.235 252.282 231.524 251.806 231.438 251.193 231.029 250.815 230.93 250.678 230.782 250.494 230.606 250.277 230.014 249.575 229.482 248.825 229.014 248.035 228.902 247.778 228.667 247.595 228.39 247.549L228.387 247.549C228.228 247.551 228.093 247.659 227.983 247.87 227.668 248.482 227.529 248.532 227.054 248.624 226.947 248.645 226.819 248.67 226.664 248.708 226.153 248.835 226.156 248.89 226.187 249.419 226.193 249.519 226.199 249.629 226.203 249.754L226.212 250.024C226.231 250.596 226.236 250.733 226.013 251.044 225.988 251.123 225.977 251.205 225.98 251.288Z" fill="#FFFFFF"/><path d="M230.241 253.23C229.952 253.233 229.665 253.186 229.392 253.092 229.32 253.059 229.25 253.02 229.185 252.976 228.629 252.634 227.997 252.438 227.346 252.406 226.773 252.337 225.433 252.173 225.491 251.332L225.493 251.27C225.483 251.091 225.526 250.913 225.616 250.759 225.74 250.587 225.743 250.583 225.724 250.04L225.716 249.769C225.711 249.654 225.706 249.551 225.7 249.458 225.663 248.834 225.685 248.446 226.547 248.234 226.696 248.196 226.821 248.172 226.927 248.151 227.329 248.072 227.329 248.072 227.546 247.648 227.685 247.304 228.013 247.074 228.383 247.06L228.39 247.06C228.85 247.098 229.254 247.381 229.445 247.802 229.892 248.556 230.4 249.273 230.966 249.943 231.169 250.197 231.322 250.387 231.424 250.526 231.937 251.057 232.037 251.863 231.671 252.504 231.376 253.003 230.818 253.286 230.241 253.23ZM226.163 251.373C226.175 251.396 226.317 251.601 227.429 251.739 228.183 251.779 228.914 252.01 229.554 252.411L229.638 252.463C229.831 252.537 230.813 252.71 231.069 252.197 231.36 251.624 231.213 251.38 230.879 250.926 230.792 250.804 230.668 250.648 230.521 250.467L230.461 250.393C229.862 249.683 229.323 248.924 228.851 248.124 228.768 247.928 228.597 247.783 228.39 247.735 228.305 247.736 228.224 247.81 228.147 247.956 227.815 248.603 227.639 248.7 227.088 248.806L227.044 248.815C226.95 248.834 226.839 248.856 226.709 248.889 226.347 248.979 226.347 248.979 226.373 249.407 226.379 249.509 226.384 249.621 226.389 249.747L226.398 250.018C226.479 250.409 226.397 250.815 226.17 251.144L226.17 251.142C226.172 251.192 226.17 251.242 226.166 251.292Z" fill="#FFFFFF"/><path d="M232.528 241.234C232.079 241.187 231.654 241.013 231.302 240.731 231.263 240.704 231.226 240.675 231.192 240.643 231.133 240.582 231.102 240.498 231.108 240.413 231.152 240.217 231.27 240.046 231.438 239.936L231.501 239.884C231.974 239.355 232.736 239.194 233.383 239.485 233.864 239.683 234.141 239.78 234.324 239.844 234.451 239.88 234.572 239.932 234.685 240 234.773 240.06 234.831 240.155 234.846 240.261 234.86 240.445 234.793 240.625 234.664 240.756 234.637 240.789 234.589 240.793 234.556 240.766 234.524 240.739 234.52 240.691 234.547 240.658 234.649 240.561 234.704 240.423 234.695 240.282 234.688 240.219 234.654 240.162 234.602 240.126 234.499 240.065 234.388 240.018 234.273 239.986 234.089 239.922 233.811 239.826 233.325 239.627 232.73 239.357 232.03 239.508 231.599 239.998L231.537 240.052C231.316 240.234 231.264 240.355 231.258 240.423 231.256 240.467 231.273 240.509 231.303 240.541 231.331 240.566 231.361 240.59 231.392 240.611 231.733 240.881 232.146 241.045 232.58 241.08 233.142 241.048 233.38 241.002 234.263 240.313 234.296 240.288 234.343 240.294 234.368 240.327 234.393 240.36 234.388 240.408 234.355 240.434 233.892 240.918 233.26 241.205 232.59 241.232L232.528 241.234" fill="#FFFFFF"/><path d="M231.783 239.761C231.51 239.582 231.405 239.232 231.535 238.932 231.61 238.786 231.789 238.728 231.936 238.803 232 238.835 232.05 238.89 232.076 238.957 232.143 239.157 232.143 239.373 232.076 239.573L232.366 239.458C232.416 239.121 232.346 238.777 232.168 238.486 232.015 238.244 231.695 238.172 231.453 238.325 231.389 238.366 231.334 238.421 231.293 238.486 231.081 238.976 231.196 239.547 231.581 239.917Z" fill="#FFFFFF"/><path d="M233.95 239.761C234.085 239.622 234.185 239.451 234.24 239.265 234.332 238.756 233.95 238.716 233.95 238.716 233.28 238.67 233.445 239.593 233.445 239.593L233.124 239.477C233.124 239.477 233.043 238.001 234.09 238.093 234.535 238.155 234.846 238.567 234.785 239.012 234.778 239.056 234.769 239.099 234.756 239.141 234.703 239.444 234.545 239.719 234.31 239.917Z" fill="#FFFFFF"/><path d="M236.515 246.789 236.45 246.856C236.468 245.829 236.193 244.817 235.656 243.941 235.09 242.936 234.745 241.822 234.644 240.674L234.644 240.615C234.67 240.424 234.519 240.751 234.424 240.812 234.021 241.063 233.573 241.548 233.227 241.64 232.628 241.825 231.98 241.589 231.639 241.063 231.639 241.063 231.504 240.782 231.488 240.844L231.488 240.812C231.488 240.812 231.339 241.57 231.305 241.754 231.112 242.572 230.811 243.361 230.41 244.1 229.956 244.982 229.694 245.95 229.643 246.941L229.643 247.121C229.817 247.705 229.821 247.983 230.982 248.765 230.982 248.765 231.523 249.117 231.477 249.385 231.477 249.385 231.465 249.675 230.791 250.055L230.875 250.223C232.442 251.063 234.377 250.737 235.583 249.432L235.608 249.368C235.597 249.092 235.57 248.858 235.564 248.753 235.552 248.534 235.435 247.5 236.092 247.476L236.105 247.412C236.107 247.397 236.111 247.383 236.115 247.369 236.24 246.908 237.494 246.985 237.893 247.18L238.045 247.259C237.806 246.932 237.414 246.754 237.01 246.789L236.979 246.791" fill="#FFFFFF"/><path d="M238.26 247.518C238.642 247.364 239.075 247.549 239.229 247.93 239.259 248.007 239.277 248.088 239.281 248.171 239.314 248.611 239.526 249.019 239.869 249.299 240.582 249.76 240.56 249.996 240.56 249.996 240.616 250.157 240.652 250.394 239.328 251.164 237.579 252.184 237.97 252.327 237.291 252.684 236.887 252.895 236.412 252.917 235.99 252.745 235.99 252.745 235.263 252.697 235.321 251.441 235.347 251.058 235.417 250.68 235.529 250.313 235.601 250.001 235.627 249.682 235.608 249.363 235.608 249.363 235.381 247.696 235.91 247.509 236.691 247.415 237.48 247.418 238.26 247.518" fill="#005F4B"/><path d="M236.58 253.011C236.364 253.012 236.15 252.971 235.949 252.89 235.79 252.868 235.112 252.69 235.17 251.433 235.196 251.04 235.267 250.651 235.383 250.274 235.451 249.977 235.476 249.672 235.456 249.369 235.417 249.085 235.246 247.583 235.859 247.366 236.648 247.257 237.449 247.256 238.239 247.363 238.482 247.267 238.757 247.29 238.98 247.426 239.236 247.588 239.403 247.859 239.432 248.16 239.463 248.553 239.65 248.918 239.951 249.172 240.581 249.58 240.697 249.844 240.711 249.968 240.806 250.278 240.613 250.591 239.404 251.295 238.847 251.575 238.341 251.947 237.906 252.394 237.754 252.569 237.569 252.713 237.362 252.817 237.121 252.945 236.852 253.011 236.58 253.011M236.715 247.58C236.461 247.569 236.207 247.593 235.96 247.652 235.68 247.751 235.673 248.72 235.758 249.343 235.781 249.682 235.753 250.021 235.676 250.351 235.565 250.708 235.497 251.076 235.474 251.448 235.422 252.544 235.994 252.591 236 252.593 236.019 252.594 236.038 252.599 236.055 252.608 236.433 252.762 236.86 252.74 237.22 252.55 237.398 252.462 237.556 252.339 237.684 252.189 238.138 251.718 238.669 251.328 239.253 251.034 240.509 250.302 240.439 250.11 240.417 250.046 240.409 250.026 240.406 250.004 240.409 249.983 240.403 249.983 240.344 249.785 239.786 249.427 239.405 249.121 239.167 248.671 239.131 248.184 239.11 247.979 238.997 247.795 238.823 247.684 238.67 247.592 238.481 247.582 238.319 247.659 238.295 247.668 238.269 247.672 238.243 247.67 237.929 247.635 237.265 247.58 236.715 247.58" fill="#FFFFFF"/><path d="M236.58 253.196C236.347 253.196 236.116 253.154 235.898 253.07 235.683 253.032 234.922 252.8 234.984 251.425 235.011 251.018 235.084 250.616 235.203 250.226 235.267 249.947 235.289 249.661 235.27 249.375 235.209 248.943 235.063 247.452 235.796 247.19 236.598 247.062 237.414 247.057 238.216 247.174 238.503 247.077 238.818 247.111 239.077 247.267 239.385 247.46 239.585 247.785 239.617 248.146 239.645 248.48 239.801 248.792 240.051 249.015 240.583 249.359 240.866 249.673 240.896 249.949 241.03 250.377 240.679 250.766 239.498 251.457 238.957 251.728 238.466 252.086 238.043 252.518 237.877 252.71 237.675 252.868 237.448 252.981 237.18 253.123 236.882 253.197 236.58 253.196ZM236.025 252.409C236.063 252.413 236.101 252.424 236.135 252.441 236.461 252.566 236.824 252.546 237.134 252.386 237.288 252.31 237.425 252.204 237.537 252.074 238.005 251.584 238.553 251.177 239.159 250.872 240.149 250.297 240.234 250.098 240.241 250.078 240.231 250.066 240.226 250.052 240.225 250.037 240.076 249.853 239.893 249.698 239.686 249.583 239.254 249.248 238.985 248.745 238.945 248.199 238.929 248.053 238.849 247.922 238.725 247.842 238.624 247.781 238.497 247.776 238.391 247.831 238.338 247.851 238.28 247.859 238.222 247.854 237.951 247.823 237.285 247.767 236.715 247.767 236.482 247.753 236.248 247.773 236.021 247.828 235.864 248.309 235.836 248.823 235.942 249.319 235.968 249.681 235.939 250.045 235.855 250.399 235.749 250.743 235.683 251.098 235.659 251.457 235.619 252.312 235.979 252.402 236.025 252.409Z" fill="#FFFFFF"/><path d="M238.26 247.758C238.253 247.79 237.426 249.087 236.658 248.82 236.118 248.635 236.041 247.918 236.137 247.527L236.155 247.386C236.155 247.386 236.157 246.927 237.447 247.054 237.447 247.054 238.168 247.155 238.26 247.518 238.283 247.596 238.283 247.679 238.26 247.758" fill="#005F4B"/><path d="M236.873 248.933C236.791 248.933 236.71 248.919 236.632 248.892 236.133 248.629 235.894 248.046 236.064 247.508L236.081 247.376C236.091 247.294 236.133 247.219 236.198 247.168 236.577 246.947 237.027 246.879 237.454 246.979 237.488 246.984 238.23 247.092 238.334 247.501 238.36 247.591 238.36 247.686 238.334 247.776 238.092 248.189 237.755 248.538 237.352 248.796 237.206 248.881 237.042 248.928 236.873 248.933M237.034 247.109C236.78 247.08 236.524 247.138 236.307 247.272 236.269 247.301 236.242 247.342 236.231 247.388L236.213 247.537C236.115 247.932 236.198 248.582 236.683 248.75 237.346 248.979 238.108 247.885 238.189 247.733 238.206 247.669 238.206 247.601 238.187 247.537 238.122 247.28 237.622 247.156 237.436 247.129 237.283 247.114 237.149 247.108 237.034 247.108" fill="#FFFFFF"/><path d="M236.873 249.095C236.773 249.096 236.674 249.079 236.58 249.047 236 248.755 235.716 248.089 235.906 247.469L235.919 247.355 235.919 247.355C235.933 247.234 235.994 247.123 236.088 247.047 236.5 246.79 236.997 246.707 237.47 246.817 237.481 246.819 238.355 246.922 238.492 247.46 238.524 247.576 238.524 247.698 238.493 247.814 238.24 248.273 237.875 248.66 237.431 248.938 237.261 249.037 237.069 249.091 236.873 249.095ZM236.387 247.451 236.375 247.555C236.286 247.92 236.366 248.467 236.736 248.596 237.231 248.775 237.897 247.914 238.034 247.674 238.041 247.641 238.039 247.607 238.029 247.576 237.999 247.46 237.679 247.33 237.413 247.292 237.273 247.277 237.145 247.271 237.034 247.271 236.818 247.245 236.6 247.289 236.411 247.397Z" fill="#FFFFFF"/><path d="M235.318 252.118C235.296 252.118 235.274 252.113 235.254 252.103 234.166 251.567 232.909 251.485 231.761 251.876 231.684 251.909 231.596 251.873 231.563 251.796 231.563 251.796 231.563 251.796 231.563 251.796 231.531 251.719 231.566 251.63 231.642 251.597 232.869 251.166 234.218 251.251 235.382 251.831 235.457 251.867 235.49 251.956 235.455 252.032 235.43 252.085 235.377 252.118 235.318 252.118" fill="#FFFFFF"/><path d="M235.318 252.305C235.268 252.304 235.218 252.293 235.174 252.27 234.133 251.76 232.933 251.68 231.833 252.048 231.751 252.082 231.658 252.082 231.575 252.049 231.402 251.978 231.32 251.779 231.392 251.607 231.425 251.527 231.487 251.463 231.565 251.428 232.842 250.973 234.248 251.058 235.461 251.663 235.542 251.699 235.604 251.766 235.635 251.849 235.666 251.934 235.662 252.028 235.623 252.11 235.569 252.23 235.449 252.307 235.318 252.305Z" fill="#FFFFFF"/><path d="M238.36 247.635C238.277 247.636 238.209 247.569 238.209 247.486 238.208 247.419 238.252 247.361 238.315 247.341 238.314 247.341 238.586 247.213 238.612 246.457 238.448 245.361 238.041 244.317 237.422 243.399 237.346 243.271 237.214 243.084 237.059 242.868 236.39 242.075 235.906 241.143 235.642 240.139 235.632 239.904 235.626 239.602 235.618 239.283 235.62 238.706 235.59 238.129 235.529 237.555 235.354 236.567 234.489 235.85 233.485 235.862 232.422 235.734 231.442 236.454 231.246 237.508 231.201 238.254 231.196 239.003 231.233 239.751 231.242 240.084 231.249 240.375 231.249 240.568 231.21 241.072 231.051 241.559 230.784 241.988 230.717 242.116 230.656 242.23 230.616 242.33 230.225 243.059 229.797 243.768 229.333 244.454 229.168 244.713 229.005 244.969 228.855 245.208 228.479 245.815 228.323 246.532 228.415 247.24 228.43 247.322 228.375 247.401 228.293 247.416 228.211 247.431 228.133 247.378 228.117 247.297 228.007 246.513 228.177 245.717 228.599 245.047 228.749 244.808 228.913 244.551 229.077 244.292 229.638 243.414 230.216 242.505 230.337 242.215 230.38 242.108 230.444 241.985 230.516 241.847 230.758 241.46 230.905 241.022 230.946 240.568 230.946 240.377 230.939 240.088 230.93 239.76 230.891 238.993 230.897 238.226 230.948 237.46 231.165 236.254 232.281 235.423 233.499 235.56 234.646 235.554 235.63 236.376 235.828 237.506 235.892 238.094 235.923 238.684 235.922 239.275 235.928 239.592 235.935 239.892 235.945 240.124 236.214 241.066 236.678 241.942 237.307 242.693 237.471 242.925 237.6 243.107 237.674 243.231 238.329 244.202 238.754 245.309 238.916 246.469 238.88 247.451 238.453 247.613 238.406 247.628 238.391 247.633 238.375 247.636 238.36 247.635" fill="#FFFFFF"/><path d="M238.359 247.822C238.174 247.823 238.023 247.673 238.022 247.487 238.021 247.339 238.118 247.208 238.259 247.164 238.382 246.947 238.44 246.7 238.426 246.451 238.288 245.384 237.888 244.368 237.262 243.493 237.188 243.368 237.059 243.187 236.908 242.978 236.216 242.157 235.72 241.189 235.457 240.148 235.447 239.945 235.441 239.691 235.436 239.419L235.433 239.287C235.434 238.719 235.405 238.151 235.346 237.586 235.187 236.683 234.394 236.031 233.477 236.047 232.509 235.925 231.612 236.577 231.43 237.537 231.387 238.263 231.383 238.99 231.418 239.717L231.42 239.816C231.428 240.122 231.435 240.388 231.435 240.568 231.399 241.098 231.233 241.612 230.954 242.064 230.885 242.195 230.826 242.305 230.788 242.4 230.406 243.121 229.985 243.821 229.527 244.496L229.49 244.554C229.325 244.813 229.161 245.069 229.011 245.306 228.662 245.875 228.516 246.545 228.597 247.208 228.631 247.39 228.511 247.566 228.328 247.6 228.328 247.6 228.327 247.6 228.327 247.6 228.145 247.631 227.972 247.513 227.935 247.333 227.815 246.503 227.994 245.658 228.442 244.949 228.592 244.709 228.756 244.451 228.921 244.193 229.45 243.362 230.05 242.42 230.165 242.144 230.209 242.034 230.276 241.905 230.352 241.76 230.578 241.399 230.717 240.991 230.76 240.568 230.76 240.378 230.753 240.092 230.744 239.765 230.705 238.988 230.711 238.209 230.764 237.432 230.98 236.193 232.087 235.309 233.343 235.372 233.397 235.372 233.451 235.372 233.506 235.375 234.742 235.369 235.802 236.258 236.012 237.476 236.077 238.072 236.109 238.671 236.108 239.271 236.114 239.586 236.121 239.885 236.131 240.115 236.402 241.014 236.85 241.85 237.449 242.573L237.493 242.634C237.644 242.848 237.763 243.017 237.834 243.134 238.508 244.135 238.942 245.279 239.101 246.475 239.062 247.565 238.561 247.774 238.46 247.805 238.428 247.818 238.394 247.824 238.359 247.822ZM238.359 247.45 238.359 247.636 238.36 247.45Z" fill="#FFFFFF"/></g></svg>