<svg width="193" height="236" xmlns="http://www.w3.org/2000/svg" xmlns:xlink="http://www.w3.org/1999/xlink" xml:space="preserve" overflow="hidden"><defs><clipPath id="clip0"><rect x="717" y="789" width="193" height="236"/></clipPath><clipPath id="clip1"><rect x="740" y="788" width="170" height="175"/></clipPath><clipPath id="clip2"><rect x="740" y="788" width="170" height="175"/></clipPath><clipPath id="clip3"><rect x="740" y="788" width="170" height="175"/></clipPath></defs><g clip-path="url(#clip0)" transform="translate(-717 -789)"><g clip-path="url(#clip1)"><g clip-path="url(#clip2)"><g clip-path="url(#clip3)"><path d="M3.32739 0 131.032 0 131.032 36.9083 3.3274 36.9083Z" fill="#005F4B" transform="matrix(1.00342 0 0 1 740 790.523)"/><path d="M12.1641 44.4896 122.196 44.4896 122.196 52.721 12.1641 52.721Z" fill="#005F4B" transform="matrix(1.00342 0 0 1 740 790.523)"/><path d="M3.17315 60.2092 51.4848 60.2092 51.4848 97.1173 3.17315 97.1173Z" fill="#005F4B" transform="matrix(1.00342 0 0 1 740 790.523)"/><path d="M11.5999 104.796 51.4847 104.796 51.4847 112.532 11.5999 112.532Z" fill="#005F4B" transform="matrix(1.00342 0 0 1 740 790.523)"/><path d="M0 120.082 51.4848 120.082 51.4848 156.903 1.15989e-06 156.903Z" fill="#005F4B" transform="matrix(1.00342 0 0 1 740 790.523)"/><path d="M169.421 60.0468 58.5129 60.0468 58.5129 60.2097 58.5129 97.1173 58.5129 104.796 58.5129 112.533 58.5129 120.08 58.5129 156.902 58.5129 170.955 169.421 170.955 169.421 60.0468Z" fill="#DF8C42" transform="matrix(1.00342 0 0 1 740 790.523)"/><path d="M74.7492 152.201C74.594 154.381 78.5798 155.384 83.0475 155.923 87.0776 156.117 90.9828 157.382 94.3609 159.588 96.0753 160.247 102.263 161.161 104.222 157.375 105.889 154.637 105.403 151.105 103.06 148.918 99.1706 144.39 95.6115 139.588 92.4103 134.55 90.881 131.779 87.454 130 85.4958 133.711 83.5361 137.423 83.2235 136.648 79.0083 137.663 75.0307 138.622 75.8256 139.698 75.9478 143.89 76.0704 148.08 76.2609 148.52 75.0917 150.116 74.8176 150.775 74.7004 151.489 74.7492 152.201Z" fill="#DF8B43" transform="matrix(1.00342 0 0 1 740 790.523)"/><path d="M98.2196 160.974C96.8088 160.988 95.4057 160.768 94.0673 160.321 93.7465 160.18 93.4392 160.009 93.1501 159.812 90.0616 157.942 86.5554 156.874 82.9493 156.704 78.6432 156.185 73.7289 155.198 73.9466 152.146L73.9466 152.146 73.9601 151.8C73.9113 151.055 74.0764 150.312 74.4366 149.658 75.3008 148.479 75.2904 148.18 75.1904 145.324L75.1438 143.912C75.1257 143.279 75.0908 142.718 75.061 142.218 74.8773 139.2 74.9592 137.827 78.8155 136.899 79.6752 136.692 80.3752 136.558 80.9611 136.446 83.1619 136.024 83.3922 135.981 84.7804 133.351 85.3682 131.881 86.7613 130.89 88.3431 130.817 90.4227 130.998 92.2452 132.279 93.118 134.175 95.5572 138.21 98.3345 142.03 101.42 145.595 102.371 146.755 103.176 147.738 103.71 148.456 106.222 150.888 106.732 154.728 104.94 157.73 103.491 159.992 100.892 161.246 98.2196 160.974ZM75.5524 152.256C75.4999 152.986 76.4179 154.33 83.1452 155.142 86.993 155.346 90.7312 156.496 94.0279 158.491 94.2261 158.631 94.4356 158.753 94.6546 158.856 96.0518 159.392 101.811 160.296 103.504 157.019 105.04 154.545 104.579 151.325 102.408 149.382 101.886 148.677 101.096 147.717 100.164 146.58 97.0173 142.942 94.1867 139.043 91.7031 134.924 91.0864 133.578 89.8381 132.627 88.3762 132.392L88.358 132.392C87.5174 132.399 86.7939 132.965 86.2102 134.072 84.5352 137.248 83.8026 137.506 81.2697 137.99 80.705 138.099 80.0291 138.228 79.201 138.427 76.4831 139.082 76.4998 139.37 76.6681 142.125 76.6985 142.638 76.7337 143.216 76.7532 143.867L76.7984 145.271C76.9025 148.252 76.9288 148.96 75.7447 150.574 75.6098 150.983 75.5505 151.412 75.5691 151.842Z" fill="#FFFFFF" transform="matrix(1.00342 0 0 1 740 790.523)"/><path d="M110.38 99.5484C108.005 99.3104 105.746 98.4064 103.862 96.9404 103.653 96.8015 103.455 96.6463 103.271 96.4758 102.96 96.1599 102.8 95.7256 102.832 95.2835 103.065 94.2546 103.697 93.3605 104.589 92.7972L104.919 92.5257C107.47 89.7711 111.489 88.9413 114.922 90.4611 117.485 91.4873 118.954 91.9895 119.928 92.3217 120.599 92.5081 121.245 92.78 121.847 93.1316 122.312 93.442 122.623 93.9361 122.701 94.4903 122.777 95.4486 122.423 96.3911 121.736 97.0626 121.592 97.23 121.341 97.2526 121.169 97.1137 121.002 96.9784 120.976 96.7337 121.112 96.5667 121.114 96.5644 121.116 96.5617 121.118 96.559 121.655 96.054 121.942 95.3382 121.903 94.6025 121.86 94.2713 121.677 93.9745 121.401 93.7872 120.854 93.4745 120.27 93.232 119.661 93.0646 118.681 92.7298 117.199 92.2239 114.616 91.1891 111.459 89.7851 107.757 90.567 105.437 93.128L105.104 93.4021C103.936 94.3559 103.66 94.9817 103.634 95.3387 103.618 95.5672 103.704 95.7903 103.869 95.9491 104.02 96.0794 104.178 96.2002 104.344 96.3106 106.165 97.7255 108.36 98.5752 110.659 98.7544 113.642 98.5815 114.912 98.3395 119.603 94.7654 119.778 94.6315 120.029 94.6618 120.167 94.8342 120.301 95.0016 120.274 95.2459 120.106 95.3799 120.103 95.3821 120.1 95.3844 120.097 95.3867 117.611 97.9182 114.251 99.4041 110.706 99.5398 110.598 99.5462 110.489 99.5484 110.38 99.5484Z" fill="#FFFFFF" transform="matrix(1.00342 0 0 1 740 790.523)"/><path d="M106.419 91.8945C104.973 90.9796 104.413 89.144 105.104 87.578 105.52 86.802 106.487 86.5111 107.262 86.9274 107.582 87.0993 107.834 87.3758 107.976 87.711 108.334 88.7485 108.334 89.8761 107.976 90.9136L109.515 90.3168C109.778 88.5589 109.406 86.7654 108.466 85.2573 107.624 83.9728 105.9 83.6144 104.616 84.4564 104.297 84.6655 104.024 84.9383 103.815 85.2573 102.694 87.8155 103.308 90.8032 105.348 92.7117Z" fill="#FFFFFF" transform="matrix(1.00342 0 0 1 740 790.523)"/><path d="M117.938 91.8945C118.658 91.1756 119.189 90.2892 119.482 89.3155 119.971 86.6672 117.938 86.4545 117.938 86.4545 114.375 86.2147 115.254 91.0181 115.254 91.0181L113.544 90.4113C113.544 90.4113 113.117 82.7425 118.686 83.2217 121.016 83.5121 122.669 85.6356 122.379 87.9649 122.349 88.2033 122.299 88.439 122.229 88.6693 121.939 90.2557 121.096 91.6878 119.85 92.7117Z" fill="#FFFFFF" transform="matrix(1.00342 0 0 1 740 790.523)"/><path d="M131.579 128.447 131.233 128.792C131.326 123.437 129.858 118.171 127.01 113.636 124.004 108.424 122.167 102.623 121.624 96.6323L121.627 96.335C121.771 95.3387 120.967 97.0404 120.461 97.3508 118.492 99.0014 116.359 100.445 114.096 101.661 110.929 102.624 107.505 101.41 105.651 98.6679 105.651 98.6679 104.933 97.201 104.847 97.5241L104.847 97.3508C104.847 97.3508 104.06 101.302 103.876 102.26 102.85 106.523 101.25 110.628 99.1177 114.46 96.7079 119.031 95.3165 124.069 95.0401 129.229L95.0401 130.166C95.9599 133.214 95.9902 134.651 102.163 138.72 102.163 138.72 105.04 140.56 104.794 141.945 104.794 141.945 104.73 143.457 101.144 145.433L101.589 146.301C109.917 150.663 120.126 148.988 126.624 142.194L126.753 141.863C126.698 140.42 126.549 139.208 126.52 138.661 126.459 137.523 125.837 132.136 129.326 132.016L129.393 131.684C129.411 131.605 129.431 131.529 129.451 131.455 130.122 129.064 136.778 129.469 138.904 130.478L139.71 130.89C138.423 129.179 136.344 128.255 134.212 128.447L134.048 128.453" fill="#FFFFFF" transform="matrix(1.00342 0 0 1 740 790.523)"/><path d="M140.855 132.24C142.877 131.417 145.182 132.389 146.005 134.411 146.164 134.801 146.26 135.215 146.288 135.636 146.471 137.94 147.6 140.065 149.408 141.503 153.203 143.899 153.081 145.127 153.081 145.127 153.387 145.964 153.57 147.191 146.533 151.202 137.232 156.503 139.311 157.249 135.701 159.105 133.548 160.203 131.027 160.317 128.784 159.418 128.784 159.418 124.921 159.176 125.235 152.64 125.366 150.647 125.736 148.677 126.336 146.773 126.716 145.155 126.856 143.491 126.753 141.833 126.753 141.833 125.552 133.166 128.359 132.192 132.511 131.702 136.707 131.718 140.855 132.24Z" fill="#DF8B43" transform="matrix(1.00342 0 0 1 740 790.523)"/><path d="M131.922 160.81C130.774 160.815 129.636 160.602 128.568 160.183 127.729 160.056 124.118 159.131 124.431 152.602 124.564 150.553 124.943 148.527 125.559 146.567 125.921 145.027 126.053 143.441 125.949 141.862 125.739 140.385 124.831 132.58 128.09 131.451 132.289 130.883 136.544 130.878 140.744 131.436 142.04 130.934 143.494 131.055 144.689 131.763 146.041 132.588 146.928 133.998 147.09 135.573 147.258 137.63 148.252 139.53 149.845 140.842 153.197 142.958 153.816 144.337 153.881 144.983 154.395 146.6 153.362 148.221 146.938 151.882 143.983 153.335 141.29 155.267 138.967 157.602 138.157 158.518 137.173 159.266 136.073 159.802 134.79 160.466 133.366 160.812 131.922 160.81ZM132.641 132.56C131.292 132.5 129.942 132.626 128.628 132.934 127.135 133.452 127.102 138.487 127.551 141.726 127.674 143.489 127.527 145.259 127.114 146.977 126.529 148.827 126.168 150.74 126.039 152.677 125.764 158.374 128.806 158.63 128.836 158.631 128.937 158.638 129.037 158.663 129.129 158.706 131.14 159.509 133.401 159.4 135.326 158.408 136.267 157.956 137.106 157.315 137.791 156.527 140.218 154.077 143.035 152.048 146.128 150.522 152.807 146.715 152.443 145.719 152.323 145.392 152.284 145.284 152.269 145.169 152.279 145.055L152.279 145.057C152.254 145.057 151.931 144.033 148.973 142.165 146.952 140.597 145.686 138.25 145.485 135.7 145.368 134.63 144.766 133.673 143.851 133.106 143.032 132.623 142.029 132.57 141.164 132.967 141.039 133.016 140.903 133.036 140.769 133.023 139.101 132.846 135.566 132.56 132.641 132.56Z" fill="#FFFFFF" transform="matrix(1.00342 0 0 1 740 790.523)"/><path d="M140.855 133.484C140.812 133.658 136.423 140.393 132.337 139.012 129.465 138.042 129.054 134.319 129.57 132.281L129.669 131.55C129.669 131.55 129.675 129.166 136.531 129.827 136.531 129.827 140.364 130.351 140.855 132.24 140.973 132.646 140.973 133.078 140.855 133.484Z" fill="#DE8A43" transform="matrix(1.00342 0 0 1 740 790.523)"/><path d="M133.48 139.592C133.046 139.594 132.616 139.523 132.205 139.384 129.566 138.054 128.283 135.003 129.179 132.187L129.27 131.498C129.323 131.069 129.547 130.679 129.89 130.416 131.916 129.266 134.299 128.917 136.57 129.436 136.755 129.46 140.694 130.021 141.245 132.142 141.38 132.612 141.38 133.109 141.245 133.578L141.245 133.578C139.955 135.738 138.166 137.556 136.027 138.88 135.25 139.325 134.375 139.57 133.48 139.592ZM134.334 130.104C132.987 129.953 131.629 130.256 130.473 130.963 130.266 131.103 130.122 131.318 130.071 131.563L129.969 132.333C129.45 134.387 129.895 137.771 132.467 138.64 135.995 139.832 140.046 134.15 140.473 133.354 140.568 133.021 140.565 132.668 140.465 132.337 140.118 130.999 137.467 130.353 136.476 130.216 135.662 130.137 134.952 130.104 134.334 130.104Z" fill="#FFFFFF" transform="matrix(1.00342 0 0 1 740 790.523)"/><path d="M125.215 156.165C125.098 156.165 124.982 156.14 124.874 156.091 119.074 153.296 112.413 152.871 106.305 154.904 105.899 155.076 105.429 154.893 105.248 154.491 105.077 154.094 105.26 153.634 105.657 153.463 105.661 153.461 105.665 153.459 105.67 153.458 112.198 151.209 119.351 151.643 125.559 154.666 125.952 154.842 126.128 155.304 125.951 155.697 125.949 155.702 125.946 155.708 125.944 155.714 125.808 155.992 125.525 156.167 125.215 156.165Z" fill="#FFFFFF" transform="matrix(1.00342 0 0 1 740 790.523)"/><path d="M141.387 132.85C141.038 132.853 140.728 132.63 140.619 132.3 140.489 131.887 140.718 131.446 141.132 131.316 141.136 131.315 141.14 131.313 141.144 131.312L141.144 131.312C141.137 131.312 142.585 130.655 142.729 126.719 142.917 121.606 138.009 113.483 136.396 110.813 135.997 110.153 135.291 109.178 134.472 108.048 131.55 104.021 127.139 97.9354 126.94 93.8555 126.88 92.633 126.847 91.0624 126.811 89.4005 126.818 86.3998 126.66 83.4008 126.338 80.4173 125.355 75.2202 120.757 71.4964 115.469 71.615 109.871 70.8951 104.671 74.6329 103.57 80.1689 103.321 84.056 103.296 87.9535 103.496 91.8434 103.54 93.5673 103.579 95.0871 103.579 96.093 103.368 98.7186 102.52 101.253 101.107 103.477 100.752 104.142 100.43 104.741 100.214 105.254 98.1277 109.05 95.8504 112.738 93.3908 116.305 92.5158 117.647 91.647 118.98 90.8475 120.222 88.8508 123.361 88.0232 127.103 88.5092 130.791 88.5879 131.22 88.3038 131.631 87.8748 131.71 87.8726 131.71 87.8708 131.71 87.8685 131.711 87.4373 131.793 87.0188 131.515 86.9287 131.085 86.3437 127.003 87.2518 122.847 89.487 119.382 90.2874 118.138 91.1584 116.804 92.0339 115.459 95.0116 110.89 98.0888 106.167 98.725 104.655 98.9575 104.105 99.2987 103.461 99.681 102.748 100.96 100.743 101.745 98.4616 101.969 96.093 101.969 95.0971 101.93 93.5917 101.886 91.8832 101.676 87.8997 101.706 83.9071 101.978 79.9273 103.205 73.585 109.125 69.269 115.538 70.0422 121.584 69.9377 126.82 74.214 127.926 80.158 128.263 83.2162 128.428 86.2907 128.42 89.3675 128.455 91.0136 128.49 92.5701 128.548 93.78 129.981 98.6974 132.448 103.251 135.784 107.137 136.658 108.343 137.349 109.296 137.74 109.942 139.455 112.78 144.543 121.202 144.337 126.775 144.15 131.889 141.886 132.734 141.628 132.813 141.55 132.838 141.469 132.85 141.387 132.85Z" fill="#FFFFFF" transform="matrix(1.00342 0 0 1 740 790.523)"/><path d="M132.765 130.408C135.293 130.051 137.863 130.122 140.367 130.62L141.21 131.25C141.159 131.865 140.966 132.46 140.645 132.988 140.082 134.002 138.369 132.716 138.369 132.716Z" fill="#DE8A43" transform="matrix(1.00342 0 0 1 740 790.523)"/></g></g></g><path d="M893.996 974.017 743.733 974.03 743.734 974C729.082 974.164 717.239 985.825 717.048 1000.28L717 1000.28 717.002 1025 894 1024.99ZM745.285 1006.57C741.331 1006.57 738.126 1003.41 738.125 999.514 738.125 995.614 741.329 992.453 745.283 992.452 749.236 992.451 752.442 995.613 752.442 999.512 752.442 999.512 752.442 999.512 752.442 999.512 752.443 1003.41 749.238 1006.57 745.285 1006.57ZM774.66 1002.28 774.659 997.71 873.351 997.702 873.353 1002.27Z" fill="#005F4B" fill-rule="evenodd"/></g></svg>