<svg width="50" height="50" xmlns="http://www.w3.org/2000/svg" xmlns:xlink="http://www.w3.org/1999/xlink" xml:space="preserve" overflow="hidden"><defs><clipPath id="clip0"><rect x="215" y="230" width="50" height="50"/></clipPath></defs><g clip-path="url(#clip0)" transform="translate(-215 -230)"><path d="M0.956147 0 37.653 0 37.653 10.6058 0.956148 10.6058Z" fill="#005F4B" transform="matrix(1.02703 0 0 1 215 230.438)"/><path d="M3.49543 12.7844 35.1137 12.7844 35.1137 15.1497 3.49543 15.1497Z" fill="#005F4B" transform="matrix(1.02703 0 0 1 215 230.438)"/><path d="M0.911824 17.3015 14.7945 17.3015 14.7945 27.9073 0.911824 27.9073Z" fill="#005F4B" transform="matrix(1.02703 0 0 1 215 230.438)"/><path d="M3.33331 30.1138 14.7945 30.1138 14.7945 32.3369 3.33331 32.3369Z" fill="#005F4B" transform="matrix(1.02703 0 0 1 215 230.438)"/><path d="M0 34.5064 14.7945 34.5064 14.7945 45.0871 3.33301e-07 45.0871Z" fill="#005F4B" transform="matrix(1.02703 0 0 1 215 230.438)"/><path d="M48.6843 17.2548 16.8141 17.2548 16.8141 17.3016 16.8141 27.9073 16.8141 30.1137 16.8141 32.337 16.8141 34.5058 16.8141 45.0867 16.8141 49.1251 48.6843 49.1251 48.6843 17.2548Z" fill="#DF8C42" transform="matrix(1.02703 0 0 1 215 230.438)"/><path d="M21.4797 43.7361C21.4351 44.3622 22.5804 44.6506 23.8642 44.8056 25.0223 44.8611 26.1445 45.2248 27.1152 45.8588 27.6079 46.0481 29.386 46.3107 29.9489 45.2228 30.4278 44.436 30.2883 43.4209 29.6148 42.7925 28.4973 41.4913 27.4746 40.1115 26.5547 38.6639 26.1152 37.8675 25.1305 37.3563 24.5678 38.4228 24.0046 39.4895 23.9148 39.2667 22.7035 39.5583 21.5605 39.8338 21.789 40.1433 21.8241 41.3476 21.8593 42.5519 21.9141 42.6781 21.5781 43.1368 21.4993 43.3263 21.4656 43.5314 21.4797 43.7361Z" fill="#DF8B43" transform="matrix(1.02703 0 0 1 215 230.438)"/><path d="M28.224 46.2569C27.8186 46.261 27.4154 46.1976 27.0308 46.0691 26.9387 46.0287 26.8504 45.9797 26.7673 45.9229 25.8798 45.3856 24.8723 45.0788 23.836 45.0299 22.5986 44.8808 21.1865 44.5971 21.249 43.7201L21.249 43.7201 21.2529 43.6206C21.2389 43.4066 21.2863 43.1931 21.3898 43.0051 21.6382 42.6663 21.6352 42.5806 21.6064 41.7598L21.593 41.354C21.5878 41.1722 21.5778 41.011 21.5693 40.8672 21.5165 40.0001 21.54 39.6055 22.6482 39.3387 22.8952 39.2794 23.0963 39.2408 23.2647 39.2087 23.8971 39.0875 23.9633 39.0751 24.3622 38.3193 24.5311 37.8969 24.9314 37.6122 25.386 37.5912 25.9835 37.643 26.5072 38.0113 26.7581 38.5561 27.459 39.7155 28.257 40.8131 29.1436 41.8375 29.4171 42.1709 29.6484 42.4534 29.8018 42.6596 30.5237 43.3585 30.6701 44.462 30.1553 45.3248 29.7387 45.9747 28.992 46.335 28.224 46.2569ZM21.7105 43.7517C21.6954 43.9614 21.9592 44.3478 23.8923 44.5811 24.998 44.6396 26.0722 44.9702 27.0195 45.5435 27.0765 45.5835 27.1367 45.6186 27.1996 45.6484 27.6011 45.8023 29.2561 46.0621 29.7425 45.1205 30.1839 44.4094 30.0513 43.4841 29.4277 42.9258 29.2777 42.7234 29.0507 42.4473 28.7828 42.1206 27.8786 41.0754 27.0652 39.9549 26.3515 38.7713 26.1743 38.3844 25.8155 38.1113 25.3955 38.0436L25.3903 38.0436C25.1487 38.0458 24.9408 38.2083 24.7731 38.5265 24.2917 39.4391 24.0812 39.5133 23.3534 39.6523 23.1911 39.6835 22.9969 39.7206 22.7589 39.7779 21.9779 39.966 21.9827 40.0489 22.0311 40.8404 22.0398 40.988 22.0499 41.154 22.0555 41.3411L22.0685 41.7444C22.0984 42.6013 22.106 42.8046 21.7657 43.2684 21.727 43.3858 21.7099 43.5092 21.7153 43.6327Z" fill="#FFFFFF" transform="matrix(1.02703 0 0 1 215 230.438)"/><path d="M31.7184 28.6059C31.0361 28.5375 30.3868 28.2777 29.8455 27.8565 29.7854 27.8165 29.7286 27.7719 29.6757 27.7229 29.5864 27.6322 29.5403 27.5074 29.5493 27.3803 29.6164 27.0847 29.798 26.8277 30.0544 26.6659L30.1492 26.5879C30.8821 25.7963 32.0371 25.5578 33.0235 25.9946 33.76 26.2895 34.1823 26.4338 34.4619 26.5292 34.655 26.5828 34.8404 26.6609 35.0135 26.762 35.1473 26.8511 35.2365 26.9931 35.2588 27.1524 35.2807 27.4278 35.1791 27.6986 34.9815 27.8916 34.9402 27.9397 34.868 27.9462 34.8186 27.9063 34.7707 27.8674 34.7633 27.797 34.8022 27.7491 34.8029 27.7484 34.8034 27.7476 34.804 27.7468 34.9582 27.6017 35.0408 27.3961 35.0297 27.1846 35.0173 27.0895 34.9647 27.0042 34.8854 26.9504 34.7281 26.8605 34.5602 26.7908 34.3855 26.7427 34.1037 26.6465 33.6778 26.5011 32.9358 26.2038 32.0285 25.8003 30.9647 26.025 30.2981 26.7609L30.2023 26.8397C29.8667 27.1138 29.7875 27.2936 29.78 27.3962 29.7754 27.4618 29.8001 27.5259 29.8474 27.5716 29.8907 27.609 29.9362 27.6437 29.984 27.6755 30.5072 28.082 31.138 28.3262 31.7986 28.3777 32.6558 28.328 33.0208 28.2585 34.3686 27.2315 34.419 27.193 34.4911 27.2017 34.5309 27.2512 34.5692 27.2993 34.5614 27.3695 34.5132 27.408 34.5124 27.4087 34.5116 27.4093 34.5107 27.41 33.7964 28.1374 32.8309 28.5644 31.812 28.6034 31.7811 28.6052 31.7497 28.6059 31.7184 28.6059Z" fill="#FFFFFF" transform="matrix(1.02703 0 0 1 215 230.438)"/><path d="M30.5802 26.4065C30.1646 26.1436 30.0037 25.6161 30.2023 25.1661 30.3219 24.9431 30.5996 24.8595 30.8225 24.9791 30.9145 25.0285 30.9869 25.108 31.0276 25.2043 31.1306 25.5025 31.1306 25.8265 31.0276 26.1246L31.4698 25.9531C31.5454 25.448 31.4385 24.9326 31.1684 24.4992 30.9265 24.1301 30.431 24.0271 30.062 24.2691 29.9703 24.3292 29.8919 24.4076 29.8318 24.4992 29.5096 25.2344 29.6862 26.0929 30.2723 26.6413Z" fill="#FFFFFF" transform="matrix(1.02703 0 0 1 215 230.438)"/><path d="M33.8903 26.4065C34.0971 26.1999 34.2496 25.9452 34.334 25.6654 34.4744 24.9044 33.8903 24.8433 33.8903 24.8433 32.8665 24.7744 33.119 26.1546 33.119 26.1546L32.6275 25.9803C32.6275 25.9803 32.505 23.7766 34.1053 23.9143 34.7746 23.9977 35.2496 24.6079 35.1663 25.2773 35.1577 25.3458 35.1434 25.4135 35.1234 25.4797 35.0399 25.9356 34.7977 26.3471 34.4396 26.6413Z" fill="#FFFFFF" transform="matrix(1.02703 0 0 1 215 230.438)"/><path d="M37.8102 36.9101 37.7106 37.0093C37.7373 35.4705 37.3156 33.9572 36.497 32.6539 35.6334 31.1565 35.1055 29.4894 34.9495 27.7679L34.9502 27.6825C34.9916 27.3962 34.7606 27.8852 34.6152 27.9744 34.0495 28.4487 33.4366 28.8636 32.7863 29.2128 31.8763 29.4896 30.8921 29.1408 30.3595 28.3529 30.3595 28.3529 30.1531 27.9313 30.1284 28.0242L30.1284 27.9744C30.1284 27.9744 29.9022 29.1098 29.8494 29.385 29.5546 30.6101 29.0948 31.7895 28.4821 32.8908 27.7896 34.2042 27.3898 35.6521 27.3104 37.1347L27.3104 37.4041C27.5747 38.2798 27.5834 38.6929 29.3571 39.8622 29.3571 39.8622 30.1838 40.3907 30.1133 40.7888 30.1133 40.7888 30.0947 41.2233 29.0645 41.791L29.1921 42.0406C31.5854 43.2939 34.519 42.8125 36.3862 40.8603L36.4234 40.7653C36.4074 40.3505 36.3648 40.0022 36.3562 39.845 36.3388 39.5183 36.1601 37.97 37.1627 37.9357L37.1819 37.8402C37.1871 37.8176 37.1927 37.7956 37.1986 37.7746 37.3913 37.0874 39.304 37.2037 39.9148 37.4937L40.1465 37.612C39.7769 37.1204 39.1793 36.8549 38.5668 36.9102L38.5196 36.9118" fill="#FFFFFF" transform="matrix(1.02703 0 0 1 215 230.438)"/><path d="M40.4756 37.9999C41.0565 37.7635 41.7191 38.0429 41.9555 38.6239 42.0012 38.7361 42.0287 38.855 42.0367 38.9759 42.0893 39.6379 42.4139 40.2484 42.9335 40.6619 44.0238 41.3502 43.9888 41.7031 43.9888 41.7031 44.0766 41.9438 44.1293 42.2962 42.1071 43.449 39.4345 44.972 40.0318 45.1866 38.9944 45.7198 38.3759 46.0353 37.6513 46.0681 37.0069 45.8097 37.0069 45.8097 35.8968 45.7402 35.9871 43.8621 36.0248 43.2895 36.131 42.7234 36.3034 42.1761 36.4126 41.7113 36.4529 41.2331 36.4234 40.7566 36.4234 40.7566 36.0781 38.266 36.8847 37.9862 38.0779 37.8453 39.2836 37.85 40.4756 37.9999Z" fill="#DF8B43" transform="matrix(1.02703 0 0 1 215 230.438)"/><path d="M37.9086 46.2097C37.5788 46.2111 37.2518 46.15 36.9448 46.0296 36.7037 45.9932 35.666 45.7274 35.756 43.8511 35.7944 43.2623 35.9032 42.6801 36.0803 42.1171 36.1843 41.6744 36.222 41.2186 36.1924 40.7649 36.132 40.3406 35.8711 38.0978 36.8076 37.7733 38.0141 37.61 39.2369 37.6085 40.4437 37.7691 40.816 37.6248 41.2339 37.6594 41.5774 37.8629 41.9657 38.1 42.2208 38.5051 42.2671 38.9577 42.3156 39.5488 42.6013 40.0949 43.0589 40.4719 44.0222 41.0798 44.2001 41.4761 44.2186 41.6619 44.3665 42.1263 44.0694 42.5923 42.2236 43.6443 41.3744 44.0618 40.6005 44.6171 39.9331 45.2878 39.7003 45.5513 39.4176 45.7662 39.1015 45.9203 38.7328 46.111 38.3236 46.2103 37.9086 46.2098ZM38.1152 38.0921C37.7276 38.0748 37.3397 38.1109 36.962 38.1995 36.5331 38.3483 36.5237 39.7952 36.6525 40.726 36.6879 41.2324 36.6456 41.7412 36.527 42.2347 36.3591 42.7664 36.2553 43.3162 36.2181 43.8726 36.1392 45.5098 37.0132 45.5834 37.0219 45.5836 37.051 45.5856 37.0795 45.5929 37.106 45.6051 37.6839 45.8359 38.3337 45.8047 38.8869 45.5197 39.1573 45.3895 39.3984 45.2055 39.5952 44.9791 40.2925 44.275 41.1021 43.692 41.9908 43.2536 43.91 42.1596 43.8054 41.8733 43.7709 41.7793 43.7599 41.7482 43.7556 41.7152 43.7584 41.6824L43.7583 41.6831C43.751 41.6831 43.6585 41.3888 42.8084 40.852 42.2277 40.4013 41.8638 39.7269 41.8061 38.9943 41.7725 38.6868 41.5993 38.4119 41.3364 38.2489 41.1012 38.11 40.8129 38.0949 40.5645 38.2088 40.5285 38.2231 40.4895 38.2287 40.4509 38.2251 39.9715 38.1742 38.9558 38.0921 38.1152 38.0921Z" fill="#FFFFFF" transform="matrix(1.02703 0 0 1 215 230.438)"/><path d="M40.4756 38.3576C40.4632 38.4074 39.2019 40.3428 38.0278 39.946 37.2025 39.6671 37.0846 38.5973 37.2328 38.0117L37.2611 37.8016C37.2611 37.8016 37.2631 37.1167 39.2331 37.3066 39.2331 37.3066 40.3345 37.4571 40.4756 37.9999 40.5095 38.1168 40.5095 38.2408 40.4756 38.3576Z" fill="#DE8A43" transform="matrix(1.02703 0 0 1 215 230.438)"/><path d="M38.3563 40.1127C38.2317 40.1131 38.1079 40.0928 37.99 40.0528 37.2315 39.6706 36.8629 38.794 37.1203 37.9847L37.1464 37.7867C37.1619 37.6634 37.2262 37.5516 37.3247 37.4759 37.9068 37.1455 38.5916 37.045 39.2442 37.1942 39.2974 37.2012 40.4293 37.3624 40.5878 37.9719 40.6264 38.1068 40.6264 38.2497 40.5878 38.3845L40.5878 38.3845C40.2171 39.0051 39.7028 39.5276 39.0882 39.9081 38.8649 40.0359 38.6135 40.1062 38.3563 40.1127ZM38.6016 37.3863C38.2147 37.3429 37.8244 37.4298 37.4922 37.6331 37.4329 37.6734 37.3914 37.7352 37.3768 37.8055L37.3475 38.0267C37.1982 38.6171 37.3263 39.5894 38.0653 39.8391 39.0791 40.1815 40.243 38.5488 40.3657 38.32 40.393 38.2244 40.3922 38.123 40.3635 38.028 40.2638 37.6435 39.502 37.4577 39.2171 37.4184 38.9832 37.3958 38.7794 37.3863 38.6016 37.3863Z" fill="#FFFFFF" transform="matrix(1.02703 0 0 1 215 230.438)"/><path d="M35.9815 44.875C35.9477 44.875 35.9143 44.8678 35.8834 44.8537 34.2167 44.0507 32.3027 43.9284 30.5473 44.5127 30.4307 44.5622 30.2957 44.5096 30.2436 44.3941 30.1945 44.2799 30.2471 44.1476 30.3613 44.0984 30.3624 44.0979 30.3636 44.0974 30.3649 44.097 32.2407 43.4508 34.2963 43.5756 36.0802 44.4442 36.1931 44.4949 36.2436 44.6275 36.1929 44.7405 36.1922 44.742 36.1915 44.7437 36.1907 44.7454 36.1518 44.8252 36.0704 44.8757 35.9815 44.875Z" fill="#FFFFFF" transform="matrix(1.02703 0 0 1 215 230.438)"/><path d="M40.6284 38.1753C40.5282 38.1761 40.4392 38.1121 40.4077 38.0172 40.3704 37.8985 40.4363 37.7718 40.5552 37.7345 40.5562 37.7341 40.5574 37.7337 40.5585 37.7335L40.5585 37.7335C40.5566 37.7335 40.9728 37.5444 41.0141 36.4134 41.0682 34.9442 39.6576 32.61 39.1942 31.843 39.0796 31.6533 38.8766 31.3731 38.6413 31.0483 37.8019 29.8911 36.5342 28.1424 36.477 26.97 36.4598 26.6187 36.4503 26.1674 36.4399 25.6898 36.4419 24.8275 36.3965 23.9658 36.3041 23.1084 36.0217 21.615 34.7004 20.545 33.1809 20.579 31.5721 20.3722 30.0778 21.4463 29.7614 23.037 29.6899 24.154 29.6828 25.274 29.7403 26.3918 29.7529 26.8872 29.764 27.3239 29.764 27.6129 29.7035 28.3674 29.4597 29.0958 29.0537 29.7347 28.9517 29.926 28.8592 30.0981 28.7971 30.2453 28.1976 31.3363 27.5432 32.3961 26.8365 33.4209 26.585 33.8065 26.3354 34.1897 26.1056 34.5465 25.5318 35.4485 25.294 36.5238 25.4337 37.5837 25.4563 37.707 25.3747 37.8251 25.2514 37.8476 25.2507 37.8478 25.2502 37.8478 25.2496 37.8479 25.1257 37.8717 25.0054 37.7917 24.9795 37.6682 24.8114 36.4952 25.0724 35.301 25.7147 34.3051 25.9447 33.9478 26.1949 33.5644 26.4465 33.1777 27.3022 31.8651 28.1864 30.5077 28.3692 30.0733 28.4361 29.9152 28.5341 29.7303 28.644 29.5253 29.0115 28.949 29.237 28.2936 29.3015 27.6129 29.3015 27.3268 29.2902 26.8942 29.2777 26.4032 29.2172 25.2585 29.2259 24.1113 29.3041 22.9676 29.6566 21.1451 31.3577 19.9049 33.2006 20.1271 34.9378 20.097 36.4425 21.3259 36.7603 23.0339 36.8572 23.9127 36.9046 24.7962 36.9024 25.6803 36.9124 26.1533 36.9223 26.6006 36.9392 26.9483 37.3508 28.3613 38.0597 29.67 39.0185 30.7866 39.2697 31.1331 39.4681 31.4069 39.5805 31.5924 40.0732 32.4082 41.5352 34.8282 41.4762 36.4297 41.4225 37.8993 40.7718 38.142 40.6978 38.1648 40.6753 38.1718 40.6519 38.1753 40.6284 38.1753Z" fill="#FFFFFF" transform="matrix(1.02703 0 0 1 215 230.438)"/><path d="M38.151 37.4737C38.8774 37.3709 39.6159 37.3915 40.3354 37.5346L40.5777 37.7155C40.563 37.8924 40.5074 38.0632 40.4153 38.2148 40.2534 38.5064 39.7613 38.1367 39.7613 38.1367Z" fill="#DE8A43" transform="matrix(1.02703 0 0 1 215 230.438)"/></g></svg>