<svg width="51" height="69" xmlns="http://www.w3.org/2000/svg" xmlns:xlink="http://www.w3.org/1999/xlink" xml:space="preserve" overflow="hidden"><defs><clipPath id="clip0"><rect x="55" y="229" width="51" height="69"/></clipPath></defs><g clip-path="url(#clip0)" transform="translate(-55 -229)"><path d="M50.9996 0 5.58132 0 5.58132 45.4196 24.3655 45.4196 28.2204 51.507 32.2341 45.4196 50.9996 45.4196 50.9996 0Z" fill="#DF8C42" transform="matrix(1 0 0 1.00807 55 229.417)"/><path d="M41.1095 25.4564 41.1095 33.6935 33.7202 26.3056 31.9924 28.0308 39.3843 35.4187 31.1499 35.4187 31.1499 37.8608 41.1095 37.8608 43.5516 37.8608 43.5516 35.4187 43.5516 25.4564 41.1095 25.4564Z" fill="#FFFFFF" transform="matrix(1 0 0 1.00807 55 229.417)"/><path d="M22.9942 7.13821 22.9942 15.374 15.605 7.98208 13.8772 9.70855 21.2664 17.0978 13.0293 17.0978 13.0293 19.5426 22.9942 19.5426 25.435 19.5426 25.435 17.0978 25.435 7.13821 22.9942 7.13821Z" fill="#FFFFFF" transform="matrix(1 0 0 1.00807 55 229.417)"/><path d="M28.7315 13.3982 28.7315 22.8033 38.2077 22.8033 38.2077 13.3982ZM35.9541 20.5848 30.9863 20.5848 30.9863 15.6169 35.9541 15.6169Z" fill="#FFFFFF" transform="matrix(1 0 0 1.00807 55 229.417)"/><path d="M19.087 32.3027 28.5646 32.3027 28.5646 22.8963 19.087 22.8963ZM21.3419 25.115 26.3096 25.115 26.3096 30.0828 21.3419 30.0828Z" fill="#FFFFFF" transform="matrix(1 0 0 1.00807 55 229.417)"/><path d="M43.5519 9.31666C43.5376 7.49384 43.2569 7.12516 41.3888 7.14067L41.3888 7.13821 27.5503 7.13821 27.5503 8.83931 41.9515 8.83931 41.9515 22.8487 43.5519 22.8487Z" fill="#FFFFFF" transform="matrix(1 0 0 1.00807 55 229.417)"/><path d="M14.6289 22.41 13.0287 22.41 13.0287 35.6793C13.0417 37.5035 13.325 37.8708 15.1865 37.8604L29.0302 37.8604 29.0302 36.1593 14.6289 36.1593Z" fill="#FFFFFF" transform="matrix(1 0 0 1.00807 55 229.417)"/><path d="M50.9987 52.7262 7.70267 52.7298 7.70283 52.7211C3.48131 52.7689 0.0687159 56.1757 0.0136861 60.397L0 60.397 0.00049404 67.62 51 67.6159Z" fill="#005F4B" transform="matrix(1 0 0 1.00807 55 229.417)"/><path d="M9.98266 60.1694C9.98336 61.3085 9.06045 62.2325 7.9213 62.2331 6.78215 62.2339 5.85812 61.311 5.85743 60.1718 5.85674 59.0327 6.77955 58.1087 7.91864 58.1079 9.05779 58.1072 9.98189 59.03 9.98266 60.1691 9.98266 60.1693 9.98266 60.1693 9.98266 60.1694Z" fill="#FFFFFF" transform="matrix(1 0 0 1.00807 55 229.417)"/><path d="M15.8433 60.1706 44.2839 60.1706" stroke="#FFFFFF" stroke-width="1.00143" stroke-miterlimit="10" fill="none" transform="matrix(1 0 0 1.00807 55 229.417)"/></g></svg>