<svg width="34" height="34" xmlns="http://www.w3.org/2000/svg" xmlns:xlink="http://www.w3.org/1999/xlink" xml:space="preserve" overflow="hidden"><defs><clipPath id="clip0"><rect x="162" y="149" width="34" height="34"/></clipPath></defs><g clip-path="url(#clip0)" transform="translate(-162 -149)"><path d="M162 149 196 149 196 183 162 183Z" fill="#DF8C42"/><path d="M188.378 168.08 188.378 174.106 182.971 168.701 181.708 169.963 187.116 175.369 181.091 175.369 181.091 177.155 188.378 177.155 190.165 177.155 190.165 175.369 190.165 168.08 188.378 168.08Z" fill="#FFFFFF"/><path d="M175.124 154.677 175.124 160.704 169.717 155.295 168.454 156.559 173.861 161.965 167.833 161.965 167.833 163.753 175.124 163.753 176.91 163.753 176.91 161.965 176.91 154.677 175.124 154.677Z" fill="#FFFFFF"/><path d="M179.322 159.258 186.255 159.258 186.255 166.139 179.322 166.139Z" fill="#FFFFFF"/><path d="M180.972 160.881 184.606 160.881 184.606 164.516 180.972 164.516Z" fill="#DF8C42"/><path d="M172.266 166.207 179.2 166.207 179.2 173.089 172.266 173.089Z" fill="#FFFFFF"/><path d="M173.915 167.83 177.55 167.83 177.55 171.465 173.915 171.465Z" fill="#DF8C42"/><path d="M190.165 156.272C190.154 154.938 189.949 154.668 188.582 154.68L188.582 154.678 178.458 154.678 178.458 155.923 188.994 155.923 188.994 166.172 190.165 166.172Z" fill="#FFFFFF"/><path d="M169.004 165.851 167.833 165.851 167.833 175.559C167.843 176.894 168.05 177.163 169.412 177.155L179.54 177.155 179.54 175.911 169.004 175.911Z" fill="#FFFFFF"/></g></svg>