<svg width="51" height="70" xmlns="http://www.w3.org/2000/svg" xmlns:xlink="http://www.w3.org/1999/xlink" xml:space="preserve" overflow="hidden"><defs><clipPath id="clip0"><rect x="813" y="229" width="51" height="70"/></clipPath></defs><g clip-path="url(#clip0)" transform="translate(-813 -229)"><path d="M50.639 53.815 7.64838 53.8184 7.64854 53.8098C3.45685 53.8573 0.0683951 57.24 0.0137619 61.4315L0 61.4315 0.000570102 68.6036 50.6402 68.5994ZM8.09224 63.2585C6.96112 63.2587 6.04406 62.3419 6.04394 61.2107 6.04382 60.0795 6.96069 59.1625 8.09182 59.1624 9.22294 59.1623 10.14 60.0791 10.1401 61.2103 10.1401 61.2103 10.1401 61.2104 10.1401 61.2104 10.1401 62.3414 9.22331 63.2584 8.09224 63.2585ZM16.4968 62.0133 16.4962 60.6875 44.7325 60.6851 44.733 62.0109Z" fill="#005F4B" transform="matrix(1 0 0 1.00302 813 229.595)"/><path d="M51.0003 0 4.85647 0 4.85647 46.1438 23.9337 46.1438 27.931 52.399 32.0225 46.1438 51.0003 46.1438 51.0003 0Z" fill="#DF8C42" transform="matrix(1 0 0 1.00302 813 229.595)"/><path d="M23.349 8.84321 23.349 18.4262 13.7978 18.4262 13.7978 20.6377 25.579 20.6377 25.579 20.0702 25.579 18.4262 25.579 8.84321 23.349 8.84321Z" fill="#FFFFFF" transform="matrix(1 0 0 1.00302 813 229.595)"/><path d="M22.8823 8.84321 22.8823 16.3526 16.1432 9.61616 14.5707 11.1886 21.3046 17.9251 13.7978 17.9251 13.7978 20.1498 22.8823 20.1498 25.1044 20.1498 25.1044 17.9251 25.1044 8.84321 22.8823 8.84321Z" fill="#FFFFFF" transform="matrix(1 0 0 1.00302 813 229.595)"/><path d="M42.0909 10.8339C42.0807 9.16899 41.8263 8.83502 40.1256 8.84792L40.1256 8.84279 27.5061 8.84279 27.5061 10.988 39.6014 10.988 39.6014 10.9854C39.974 10.988 39.9406 11.1447 39.9561 11.3554L39.9509 11.3554 39.9509 23.1655 42.0935 23.1655 42.0935 10.8339Z" fill="#FFFFFF" transform="matrix(1 0 0 1.00302 813 229.595)"/><path d="M13.7974 35.3455C13.8103 37.0078 14.0647 37.3418 15.7653 37.3315L15.7653 37.3341 28.3822 37.3341 28.3822 35.1915 16.2921 35.1915C15.9195 35.1915 15.9504 35.0374 15.9402 34.8216L15.9402 34.8216 15.9402 23.2529 13.7974 23.2529 13.7974 35.3455Z" fill="#FFFFFF" transform="matrix(1 0 0 1.00302 813 229.595)"/><path d="M39.8462 25.6294 39.8462 35.1064 30.3984 35.1064 30.3984 37.29 42.0497 37.29 42.0497 36.7305 42.0497 35.1064 42.0497 25.6294 39.8462 25.6294Z" fill="#FFFFFF" transform="matrix(1 0 0 1.00302 813 229.595)"/><path d="M39.9509 25.6294 39.9509 35.1912 30.3838 35.1912 30.3838 36.8286 39.4802 36.8286 41.5817 36.8286 41.5817 34.7258 41.5817 25.6294 39.9509 25.6294Z" fill="#FFFFFF" transform="matrix(1 0 0 1.00302 813 229.595)"/><path d="M20.5105 23.5072 27.0694 23.5072 27.0694 32.5299 20.5105 32.5299Z" fill="#FFFFFF" transform="matrix(1 0 0 1.00302 813 229.595)"/><path d="M28.711 16.1237 35.2725 16.1237 35.2725 32.5299 28.711 32.5299Z" fill="#FFFFFF" transform="matrix(1 0 0 1.00302 813 229.595)"/></g></svg>