<svg width="34" height="34" xmlns="http://www.w3.org/2000/svg" xmlns:xlink="http://www.w3.org/1999/xlink" xml:space="preserve" overflow="hidden"><defs><clipPath id="clip0"><rect x="724" y="151" width="34" height="34"/></clipPath></defs><g clip-path="url(#clip0)" transform="translate(-724 -151)"><path d="M724 151 758 151 758 185 724 185Z" fill="#DF8C42"/><path d="M737.789 157.678 737.789 164.739 730.751 164.739 730.751 166.369 739.432 166.369 739.432 165.95 739.432 164.739 739.432 157.678 737.789 157.678Z" fill="#FFFFFF"/><path d="M737.444 157.678 737.444 163.211 732.479 158.248 731.321 159.406 736.281 164.37 730.751 164.37 730.751 166.009 737.444 166.009 739.082 166.009 739.082 164.37 739.082 157.678 737.444 157.678Z" fill="#FFFFFF"/><path d="M751.598 159.145C751.59 157.918 751.403 157.672 750.15 157.682L750.15 157.678 740.851 157.678 740.851 159.259 749.764 159.259 749.764 159.257C750.038 159.259 750.013 159.374 750.025 159.529L750.021 159.529 750.021 168.231 751.6 168.231 751.6 159.145Z" fill="#FFFFFF"/><path d="M730.75 177.206C730.76 178.431 730.947 178.677 732.2 178.669L732.2 178.671 741.497 178.671 741.497 177.093 732.589 177.093C732.314 177.093 732.337 176.979 732.329 176.82L732.329 176.82 732.329 168.296 730.75 168.296 730.75 177.206Z" fill="#FFFFFF"/><path d="M749.944 170.047 749.944 177.03 742.983 177.03 742.983 178.639 751.567 178.639 751.567 178.226 751.567 177.03 751.567 170.047 749.944 170.047Z" fill="#FFFFFF"/><path d="M750.021 170.047 750.021 177.093 742.971 177.093 742.971 178.298 749.675 178.298 751.223 178.298 751.223 176.75 751.223 170.047 750.021 170.047Z" fill="#FFFFFF"/><path d="M735.697 168.483 740.53 168.483 740.53 175.131 735.697 175.131Z" fill="#FFFFFF"/><path d="M741.739 163.043 746.574 163.043 746.574 175.131 741.739 175.131Z" fill="#FFFFFF"/></g></svg>