<svg width="34" height="34" xmlns="http://www.w3.org/2000/svg" xmlns:xlink="http://www.w3.org/1999/xlink" xml:space="preserve" overflow="hidden"><defs><clipPath id="clip0"><rect x="389" y="372" width="34" height="34"/></clipPath></defs><g clip-path="url(#clip0)" transform="translate(-389 -372)"><path d="M389 372 423 372 423 406 389 406Z" fill="#DF8C42"/><path d="M417.282 380.307 413.572 377.368 406.367 384.151 401.804 379.413 393.781 386.878 393.793 388.915 401.746 381.515 406.315 386.258 413.656 379.347 417.282 382.22 417.282 380.307Z" fill="#FFFFFF"/><path d="M393.781 396.092 401.156 396.092 401.156 401.298 393.781 401.298Z" fill="#FFFFFF"/><path d="M402.586 388.366 409.414 388.366 409.414 401.298 402.586 401.298Z" fill="#FFFFFF"/><path d="M410.859 392.694 417.269 392.694 417.269 401.298 410.859 401.298Z" fill="#FFFFFF"/></g></svg>