<svg width="52" height="69" xmlns="http://www.w3.org/2000/svg" xmlns:xlink="http://www.w3.org/1999/xlink" xml:space="preserve" overflow="hidden"><defs><clipPath id="clip0"><rect x="510" y="379" width="52" height="69"/></clipPath></defs><g clip-path="url(#clip0)" transform="translate(-510 -379)"><path d="M51.2926 54.0205 7.74711 54.0242 7.74727 54.0153C3.50147 54.0634 0.0692707 57.4897 0.0139395 61.7354L0 61.7354 0.000577461 69 51.2938 68.9958ZM8.1967 63.586C7.05097 63.5861 6.12208 62.6575 6.12196 61.5117 6.12184 60.366 7.05054 59.4371 8.19627 59.437 9.34199 59.4368 10.2709 60.3656 10.271 61.5113 10.271 61.5113 10.271 61.5114 10.271 61.5114 10.2711 62.6571 9.34238 63.5858 8.1967 63.586ZM16.7097 62.3247 16.7092 60.9818 45.3099 60.9793 45.3104 62.3223Z" fill="#005F4B" transform="matrix(1.01144 0 0 1 510.06 379)"/><path d="M51.2933 0 4.55388 0 4.55388 46.7394 24.3568 46.7394 27.9236 52.9182 31.4918 46.7394 51.2933 46.7394 51.2933 0Z" fill="#DF8C42" transform="matrix(1.01144 0 0 1 510.06 379)"/><path d="M42.9349 11.7386 37.9513 7.78766 28.2701 16.9021 22.1396 10.5366 11.3599 20.5657 11.376 23.3039 22.063 13.3608 28.2002 19.7344 38.0641 10.448 42.9349 14.3089 42.9349 11.7386Z" fill="#FFFFFF" transform="matrix(1.01144 0 0 1 510.06 379)"/><path d="M11.3603 32.946 21.2691 32.946 21.2691 39.9403 11.3603 39.9403Z" fill="#FFFFFF" transform="matrix(1.01144 0 0 1 510.06 379)"/><path d="M23.1907 22.5654 32.3646 22.5654 32.3646 39.9403 23.1907 39.9403Z" fill="#FFFFFF" transform="matrix(1.01144 0 0 1 510.06 379)"/><path d="M34.3052 28.3801 42.9176 28.3801 42.9176 39.9403 34.3052 39.9403Z" fill="#FFFFFF" transform="matrix(1.01144 0 0 1 510.06 379)"/></g></svg>