<svg width="38" height="37" xmlns="http://www.w3.org/2000/svg" xmlns:xlink="http://www.w3.org/1999/xlink" xml:space="preserve" overflow="hidden"><defs><clipPath id="clip0"><rect x="366" y="227" width="38" height="37"/></clipPath></defs><g clip-path="url(#clip0)" transform="translate(-366 -227)"><path d="M0 0 37 0 37 37 8.7636e-07 37Z" fill="#005F4B" transform="matrix(1.02703 0 0 1 366 227)"/><path d="M24.2498 17.6033 17.7938 17.6751 17.7938 13.1444 24.2498 11.8012 24.2498 17.6033Z" fill="#FFFFFF" fill-rule="evenodd" transform="matrix(1.02703 0 0 1 366 227)"/><path d="M16.8096 17.6855 12.7515 17.726 12.7515 14.0816 16.8096 13.2475 16.8096 17.6855Z" fill="#FFFFFF" fill-rule="evenodd" transform="matrix(1.02703 0 0 1 366 227)"/><path d="M16.8096 18.7088 16.8096 23.0098 12.7515 22.1705 12.7515 18.6684 16.8096 18.7088Z" fill="#FFFFFF" fill-rule="evenodd" transform="matrix(1.02703 0 0 1 366 227)"/><path d="M17.7938 18.7219 24.2498 18.7937 24.2498 24.4535 17.7938 23.1208 17.7938 18.7219Z" fill="#FFFFFF" fill-rule="evenodd" transform="matrix(1.02703 0 0 1 366 227)"/><path d="M31.0452 15.6636 31.2397 10.3497 26.5406 12.8376 31.0452 15.6636Z" fill="#FFFFFF" transform="matrix(1.02703 0 0 1 366 227)"/><path d="M6.32417 21.5192 6.60612 26.8304 11.0637 23.93 6.32417 21.5192Z" fill="#FFFFFF" transform="matrix(1.02703 0 0 1 366 227)"/><path d="M6.80999 16.4255 5.83739 16.3134C6.34457 12.1231 8.91195 8.46351 12.6794 6.56052 15.597 5.02985 18.9944 4.6899 22.1574 5.61215 25.2524 6.49461 27.8461 8.61525 29.3258 11.4733L28.4564 11.9219C27.0983 9.30216 24.7191 7.35907 21.8809 6.55161 18.9596 5.70251 15.8231 6.01726 13.1287 7.42988 9.65118 9.18364 7.2801 12.5592 6.80999 16.4255Z" fill="#FFFFFF" transform="matrix(1.02703 0 0 1 366 227)"/><path d="M18.529 30.9546C17.3444 30.9548 16.1657 30.7874 15.028 30.4575 11.9295 29.5871 9.32787 27.476 7.83805 24.6232L8.70607 24.1719C10.0734 26.7866 12.4597 28.7205 15.3008 29.5167 18.2252 30.3576 21.3617 30.0313 24.0504 28.6065 27.5191 26.8375 29.8766 23.4547 30.3353 19.588L31.308 19.695C30.8143 23.8862 28.2615 27.5545 24.5029 29.4734 22.6604 30.4419 20.6107 30.9502 18.529 30.9546Z" fill="#FFFFFF" transform="matrix(1.02703 0 0 1 366 227)"/></g></svg>