<svg width="177" height="241" xmlns="http://www.w3.org/2000/svg" xmlns:xlink="http://www.w3.org/1999/xlink" xml:space="preserve" overflow="hidden"><defs><clipPath id="clip0"><rect x="460" y="259" width="177" height="241"/></clipPath><clipPath id="clip1"><rect x="492" y="275" width="131" height="130"/></clipPath><clipPath id="clip2"><rect x="492" y="275" width="131" height="130"/></clipPath><clipPath id="clip3"><rect x="492" y="275" width="131" height="130"/></clipPath><clipPath id="clip4"><rect x="492" y="275" width="131" height="130"/></clipPath></defs><g clip-path="url(#clip0)" transform="translate(-460 -259)"><path d="M176.111 187.783 26.5992 187.795 26.5998 187.765C12.0218 187.93 0.237243 199.694 0.0472615 214.272L0 214.272 0.00170604 239.215 176.116 239.2Z" fill="#005F4B" transform="matrix(1.00502 0 0 1 460 259.893)"/><path d="M34.4726 213.486C34.475 217.419 31.288 220.611 27.3542 220.613 23.4205 220.615 20.2296 217.428 20.2272 213.495 20.2248 209.561 23.4115 206.37 27.345 206.367 31.2788 206.365 34.4699 209.551 34.4726 213.485 34.4726 213.485 34.4726 213.486 34.4726 213.486Z" fill="#FFFFFF" transform="matrix(1.00502 0 0 1 460 259.893)"/><path d="M54.7109 213.49 152.923 213.49" stroke="#FFFFFF" stroke-width="3.45819" stroke-miterlimit="10" fill="none" transform="matrix(1.00502 0 0 1 460 259.893)"/><path d="M176.114 0 15.6356 0 15.6356 160.479 81.9822 160.479 95.8888 182.233 110.113 160.479 176.114 160.479 176.114 0Z" fill="#DF8C42" transform="matrix(1.00502 0 0 1 460 259.893)"/><path d="M50.3674 34.829 141.385 34.829 141.385 125.846 50.3674 125.846Z" fill="#FFFFFF" transform="matrix(0.0052577 -0.999986 1.00501 0.00523143 475.114 435.685)"/><path d="M124.749 76.1402 122.992 58.9045 108.947 69.0394 124.749 76.1402Z" fill="#DF8C42" transform="matrix(1.00502 0 0 1 460 259.893)"/><path d="M67.2503 84.8087 68.1725 102.109 82.6923 92.6611 67.2503 84.8087Z" fill="#DF8C42" transform="matrix(1.00502 0 0 1 460 259.893)"/><path d="M68.8107 76.8452C69.8832 68.1287 75.2249 60.5179 83.0584 56.5465 95.4314 49.8067 110.925 54.3651 117.678 66.7311" stroke="#DF8C42" stroke-width="3.45819" stroke-miterlimit="10" fill="none" transform="matrix(1.00502 0 0 1 460 259.893)"/><path d="M121.858 83.9308C120.819 92.6514 115.506 100.283 107.688 104.284 95.3401 111.071 79.8289 106.571 73.0297 94.2307" stroke="#DF8C42" stroke-width="3.45819" stroke-miterlimit="10" fill="none" transform="matrix(1.00502 0 0 1 460 259.893)"/><g clip-path="url(#clip1)"><g clip-path="url(#clip2)"><g clip-path="url(#clip3)"><path d="M493 275 623 275 623 405 493 405Z" fill="#005F4B"/><path d="M578.202 336.849 555.519 337.102 555.519 321.183 578.202 316.464 578.202 336.849Z" fill="#FFFFFF" fill-rule="evenodd"/><path d="M552.061 337.138 537.802 337.28 537.802 324.476 552.061 321.545 552.061 337.138Z" fill="#FFFFFF" fill-rule="evenodd"/><path d="M552.061 340.734 552.061 355.845 537.802 352.896 537.802 340.592 552.061 340.734Z" fill="#FFFFFF" fill-rule="evenodd"/><path d="M555.519 340.78 578.202 341.032 578.202 360.918 555.519 356.235 555.519 340.78Z" fill="#FFFFFF" fill-rule="evenodd"/><path d="M602.078 330.034 602.761 311.364 586.251 320.105 602.078 330.034Z" fill="#FFFFFF"/><path d="M515.22 350.608 516.211 369.269 531.872 359.078 515.22 350.608Z" fill="#FFFFFF"/><g clip-path="url(#clip4)"><path d="M516.927 332.711 513.51 332.317C515.292 317.595 524.312 304.737 537.549 298.05 547.8 292.672 559.737 291.478 570.85 294.718 581.725 297.819 590.837 305.27 596.036 315.311L592.982 316.888C588.21 307.683 579.851 300.856 569.879 298.019 559.615 295.036 548.595 296.142 539.128 301.105 526.909 307.267 518.579 319.127 516.927 332.711Z" fill="#FFFFFF"/><path d="M558.102 383.759C553.94 383.76 549.798 383.172 545.801 382.013 534.914 378.955 525.774 371.537 520.539 361.514L523.589 359.928C528.393 369.115 536.777 375.91 546.76 378.707 557.035 381.662 568.055 380.515 577.501 375.509 589.689 369.294 597.972 357.408 599.583 343.823L603.001 344.199C601.266 358.924 592.297 371.813 579.091 378.555 572.617 381.958 565.416 383.744 558.102 383.759Z" fill="#FFFFFF"/></g></g></g></g></g></svg>