<svg width="193" height="238" xmlns="http://www.w3.org/2000/svg" xmlns:xlink="http://www.w3.org/1999/xlink" xml:space="preserve" overflow="hidden"><defs><clipPath id="clip0"><rect x="1235" y="789" width="193" height="238"/></clipPath><clipPath id="clip1"><rect x="1259" y="788" width="169" height="175"/></clipPath><clipPath id="clip2"><rect x="1259" y="788" width="169" height="175"/></clipPath><clipPath id="clip3"><rect x="1259" y="788" width="169" height="175"/></clipPath></defs><g clip-path="url(#clip0)" transform="translate(-1235 -789)"><g clip-path="url(#clip1)"><g clip-path="url(#clip2)"><g clip-path="url(#clip3)"><path d="M3.31912 0 130.707 0 130.707 36.8165 3.31912 36.8165Z" fill="#005F4B" transform="matrix(1 0 0 1.00249 1259 790.523)"/><path d="M12.1339 44.379 121.892 44.379 121.892 52.5899 12.1339 52.5899Z" fill="#005F4B" transform="matrix(1 0 0 1.00249 1259 790.523)"/><path d="M3.16526 60.0595 51.3568 60.0595 51.3568 96.8759 3.16526 96.8759Z" fill="#005F4B" transform="matrix(1 0 0 1.00249 1259 790.523)"/><path d="M11.5711 104.536 51.3567 104.536 51.3567 112.253 11.5711 112.253Z" fill="#005F4B" transform="matrix(1 0 0 1.00249 1259 790.523)"/><path d="M0 119.784 51.3568 119.784 51.3568 156.513 1.157e-06 156.513Z" fill="#005F4B" transform="matrix(1 0 0 1.00249 1259 790.523)"/><path d="M169 59.8975 58.3675 59.8975 58.3675 60.06 58.3675 96.8759 58.3675 104.535 58.3675 112.253 58.3675 119.781 58.3675 156.512 58.3675 170.53 169 170.53 169 59.8975Z" fill="#DF8C42" transform="matrix(1 0 0 1.00249 1259 790.523)"/><path d="M143.68 111.806 109.996 112.181 109.996 88.5396 143.68 81.5303 143.68 111.806Z" fill="#FFFFFF" fill-rule="evenodd" transform="matrix(1 0 0 1.00249 1259 790.523)"/><path d="M104.86 112.235 83.6877 112.447 83.6877 93.4367 104.86 89.0767 104.86 112.235Z" fill="#FFFFFF" fill-rule="evenodd" transform="matrix(1 0 0 1.00249 1259 790.523)"/><path d="M104.86 117.57 104.86 140.015 83.6877 135.633 83.6877 117.362 104.86 117.57Z" fill="#FFFFFF" fill-rule="evenodd" transform="matrix(1 0 0 1.00249 1259 790.523)"/><path d="M109.996 117.642 143.68 118.012 143.68 147.548 109.996 140.597 109.996 117.642Z" fill="#FFFFFF" fill-rule="evenodd" transform="matrix(1 0 0 1.00249 1259 790.523)"/></g></g></g><path d="M1413 975.018 1261.88 975.03 1261.88 975C1247.15 975.167 1235.24 987.057 1235.05 1001.79L1235 1001.79 1235 1027 1413 1026.99ZM1263.44 1008.21C1259.47 1008.21 1256.25 1004.99 1256.24 1001.01 1256.24 997.038 1259.47 993.814 1263.44 993.814 1267.42 993.813 1270.64 997.037 1270.64 1001.01 1270.64 1001.01 1270.64 1001.01 1270.64 1001.01 1270.64 1004.99 1267.42 1008.21 1263.44 1008.21ZM1292.99 1003.84 1292.98 999.175 1392.23 999.166 1392.24 1003.83Z" fill="#005F4B" fill-rule="evenodd"/></g></svg>