<svg width="50" height="50" xmlns="http://www.w3.org/2000/svg" xmlns:xlink="http://www.w3.org/1999/xlink" xml:space="preserve" overflow="hidden"><defs><clipPath id="clip0"><rect x="366" y="230" width="50" height="50"/></clipPath></defs><g clip-path="url(#clip0)" transform="translate(-366 -230)"><path d="M0.956147 0 37.653 0 37.653 10.6058 0.956148 10.6058Z" fill="#005F4B" transform="matrix(1.02703 0 0 1 366 230.438)"/><path d="M3.49543 12.7844 35.1137 12.7844 35.1137 15.1497 3.49543 15.1497Z" fill="#005F4B" transform="matrix(1.02703 0 0 1 366 230.438)"/><path d="M0.911824 17.3015 14.7945 17.3015 14.7945 27.9073 0.911824 27.9073Z" fill="#005F4B" transform="matrix(1.02703 0 0 1 366 230.438)"/><path d="M3.33331 30.1138 14.7945 30.1138 14.7945 32.3369 3.33331 32.3369Z" fill="#005F4B" transform="matrix(1.02703 0 0 1 366 230.438)"/><path d="M0 34.5064 14.7945 34.5064 14.7945 45.0871 3.33301e-07 45.0871Z" fill="#005F4B" transform="matrix(1.02703 0 0 1 366 230.438)"/><path d="M48.6843 17.2548 16.8141 17.2548 16.8141 17.3016 16.8141 27.9073 16.8141 30.1137 16.8141 32.337 16.8141 34.5058 16.8141 45.0867 16.8141 49.1251 48.6843 49.1251 48.6843 17.2548Z" fill="#DF8C42" transform="matrix(1.02703 0 0 1 366 230.438)"/><path d="M41.3903 32.2083 31.6869 32.3162 31.6869 25.5058 41.3903 23.4866 41.3903 32.2083Z" fill="#FFFFFF" fill-rule="evenodd" transform="matrix(1.02703 0 0 1 366 230.438)"/><path d="M30.2073 32.3318 24.1081 32.393 24.1081 26.9165 30.2073 25.6606 30.2073 32.3318Z" fill="#FFFFFF" fill-rule="evenodd" transform="matrix(1.02703 0 0 1 366 230.438)"/><path d="M30.2073 33.8687 30.2073 40.3345 24.1081 39.072 24.1081 33.8089 30.2073 33.8687Z" fill="#FFFFFF" fill-rule="evenodd" transform="matrix(1.02703 0 0 1 366 230.438)"/><path d="M31.6869 33.8895 41.3903 33.9961 41.3903 42.5045 31.6869 40.5022 31.6869 33.8895Z" fill="#FFFFFF" fill-rule="evenodd" transform="matrix(1.02703 0 0 1 366 230.438)"/></g></svg>